<svg width="424" height="216" viewBox="0 0 424 216" fill="none" xmlns="http://www.w3.org/2000/svg">
<rect width="424" height="216" rx="2" fill="white"/>
<path d="M25.368 35V22.31H33.684V24.164H27.654V27.62H33.324V29.474H27.654V35H25.368ZM40.9855 27.854L39.6715 27.98C38.1835 28.136 37.4395 28.892 37.4395 30.248V35H35.1895V26.198H37.3315V27.746C37.7875 26.69 38.7295 26.114 40.1575 26.018L40.8415 25.964L40.9855 27.854ZM49.6264 31.004H43.6324C43.7044 31.82 43.9504 32.426 44.3704 32.822C44.7904 33.218 45.3904 33.416 46.1704 33.416C47.1424 33.416 48.0304 33.104 48.8344 32.48L49.4824 34.028C49.0744 34.364 48.5584 34.634 47.9344 34.838C47.3224 35.042 46.7044 35.144 46.0804 35.144C44.6404 35.144 43.5004 34.736 42.6604 33.92C41.8324 33.104 41.4184 31.988 41.4184 30.572C41.4184 29.672 41.5984 28.874 41.9584 28.178C42.3184 27.482 42.8224 26.942 43.4704 26.558C44.1304 26.174 44.8744 25.982 45.7024 25.982C46.9144 25.982 47.8684 26.372 48.5644 27.152C49.2724 27.932 49.6264 29.006 49.6264 30.374V31.004ZM45.7564 27.566C45.1564 27.566 44.6704 27.758 44.2984 28.142C43.9384 28.526 43.7164 29.078 43.6324 29.798H47.7004C47.6764 29.066 47.4964 28.514 47.1604 28.142C46.8244 27.758 46.3564 27.566 45.7564 27.566ZM59.9629 26.198V38.24H57.7129V33.614C57.4489 34.094 57.0649 34.472 56.5609 34.748C56.0689 35.012 55.5109 35.144 54.8869 35.144C54.1189 35.144 53.4409 34.958 52.8529 34.586C52.2649 34.214 51.8029 33.686 51.4669 33.002C51.1429 32.318 50.9809 31.52 50.9809 30.608C50.9809 29.696 51.1429 28.892 51.4669 28.196C51.8029 27.488 52.2649 26.942 52.8529 26.558C53.4529 26.174 54.1309 25.982 54.8869 25.982C55.5229 25.982 56.0869 26.12 56.5789 26.396C57.0829 26.66 57.4669 27.038 57.7309 27.53V26.198H59.9629ZM55.4989 33.398C56.2069 33.398 56.7529 33.152 57.1369 32.66C57.5329 32.168 57.7309 31.472 57.7309 30.572C57.7309 29.66 57.5329 28.958 57.1369 28.466C56.7529 27.974 56.2009 27.728 55.4809 27.728C54.7729 27.728 54.2209 27.98 53.8249 28.484C53.4289 28.988 53.2309 29.696 53.2309 30.608C53.2309 31.496 53.4289 32.186 53.8249 32.678C54.2209 33.158 54.7789 33.398 55.4989 33.398ZM70.3594 26.198V35H68.1634V33.65C67.8874 34.13 67.5154 34.502 67.0474 34.766C66.5794 35.018 66.0514 35.144 65.4634 35.144C63.3034 35.144 62.2234 33.932 62.2234 31.508V26.198H64.4734V31.526C64.4734 32.15 64.5994 32.612 64.8514 32.912C65.1034 33.212 65.4994 33.362 66.0394 33.362C66.6634 33.362 67.1614 33.158 67.5334 32.75C67.9174 32.33 68.1094 31.778 68.1094 31.094V26.198H70.3594ZM80.4233 31.004H74.4293C74.5013 31.82 74.7473 32.426 75.1673 32.822C75.5873 33.218 76.1873 33.416 76.9673 33.416C77.9393 33.416 78.8273 33.104 79.6313 32.48L80.2793 34.028C79.8713 34.364 79.3553 34.634 78.7313 34.838C78.1193 35.042 77.5013 35.144 76.8773 35.144C75.4373 35.144 74.2973 34.736 73.4573 33.92C72.6293 33.104 72.2153 31.988 72.2153 30.572C72.2153 29.672 72.3953 28.874 72.7553 28.178C73.1153 27.482 73.6193 26.942 74.2673 26.558C74.9273 26.174 75.6713 25.982 76.4993 25.982C77.7113 25.982 78.6653 26.372 79.3613 27.152C80.0693 27.932 80.4233 29.006 80.4233 30.374V31.004ZM76.5533 27.566C75.9533 27.566 75.4673 27.758 75.0953 28.142C74.7353 28.526 74.5133 29.078 74.4293 29.798H78.4973C78.4733 29.066 78.2933 28.514 77.9573 28.142C77.6213 27.758 77.1533 27.566 76.5533 27.566ZM75.3653 25.046H73.5473L75.7973 21.374H77.2013L79.4513 25.046H77.6333L76.4993 22.778L75.3653 25.046ZM87.3758 25.982C88.4318 25.982 89.2178 26.282 89.7338 26.882C90.2498 27.482 90.5078 28.388 90.5078 29.6V35H88.2578V29.726C88.2578 29.042 88.1258 28.544 87.8618 28.232C87.6098 27.92 87.2078 27.764 86.6558 27.764C86.0078 27.764 85.4858 27.968 85.0898 28.376C84.7058 28.784 84.5138 29.33 84.5138 30.014V35H82.2638V26.198H84.4598V27.512C84.7598 27.02 85.1618 26.642 85.6658 26.378C86.1698 26.114 86.7398 25.982 87.3758 25.982ZM96.807 35.144C95.883 35.144 95.079 34.958 94.395 34.586C93.723 34.214 93.207 33.686 92.847 33.002C92.487 32.318 92.307 31.52 92.307 30.608C92.307 29.696 92.493 28.892 92.865 28.196C93.249 27.488 93.789 26.942 94.485 26.558C95.181 26.174 95.985 25.982 96.897 25.982C97.521 25.982 98.127 26.084 98.715 26.288C99.315 26.48 99.795 26.744 100.155 27.08L99.507 28.664C99.135 28.364 98.739 28.136 98.319 27.98C97.911 27.824 97.503 27.746 97.095 27.746C96.315 27.746 95.709 27.992 95.277 28.484C94.845 28.964 94.629 29.66 94.629 30.572C94.629 31.472 94.845 32.168 95.277 32.66C95.709 33.14 96.315 33.38 97.095 33.38C97.503 33.38 97.911 33.302 98.319 33.146C98.739 32.99 99.135 32.762 99.507 32.462L100.155 34.028C99.771 34.376 99.279 34.652 98.679 34.856C98.079 35.048 97.455 35.144 96.807 35.144ZM101.582 35V26.198H103.832V35H101.582ZM101.456 22.112H103.94V24.326H101.456V22.112ZM109.932 25.982C111.168 25.982 112.086 26.282 112.686 26.882C113.286 27.482 113.586 28.406 113.586 29.654V35H111.444V33.65C111.24 34.118 110.916 34.484 110.472 34.748C110.04 35.012 109.536 35.144 108.96 35.144C108.372 35.144 107.838 35.024 107.358 34.784C106.878 34.544 106.5 34.214 106.224 33.794C105.948 33.374 105.81 32.906 105.81 32.39C105.81 31.742 105.972 31.232 106.296 30.86C106.632 30.488 107.172 30.218 107.916 30.05C108.66 29.882 109.686 29.798 110.994 29.798H111.444V29.384C111.444 28.784 111.312 28.352 111.048 28.088C110.796 27.824 110.37 27.692 109.77 27.692C109.302 27.692 108.81 27.776 108.294 27.944C107.79 28.1 107.292 28.322 106.8 28.61L106.17 27.062C106.662 26.75 107.256 26.492 107.952 26.288C108.648 26.084 109.308 25.982 109.932 25.982ZM109.41 33.524C110.01 33.524 110.496 33.326 110.868 32.93C111.252 32.522 111.444 32 111.444 31.364V30.986H111.12C110.316 30.986 109.692 31.022 109.248 31.094C108.804 31.166 108.486 31.292 108.294 31.472C108.102 31.652 108.006 31.898 108.006 32.21C108.006 32.594 108.138 32.912 108.402 33.164C108.666 33.404 109.002 33.524 109.41 33.524ZM131.218 25.982C132.214 25.982 132.958 26.282 133.45 26.882C133.942 27.47 134.188 28.376 134.188 29.6V35H131.938V29.69C131.938 29.018 131.824 28.532 131.596 28.232C131.368 27.92 131.002 27.764 130.498 27.764C129.898 27.764 129.43 27.968 129.094 28.376C128.758 28.784 128.59 29.354 128.59 30.086V35H126.34V29.69C126.34 29.018 126.226 28.532 125.998 28.232C125.782 27.92 125.416 27.764 124.9 27.764C124.312 27.764 123.85 27.968 123.514 28.376C123.178 28.784 123.01 29.354 123.01 30.086V35H120.76V26.198H122.956V27.44C123.22 26.96 123.586 26.6 124.054 26.36C124.522 26.108 125.056 25.982 125.656 25.982C126.988 25.982 127.87 26.534 128.302 27.638C128.578 27.122 128.974 26.72 129.49 26.432C130.006 26.132 130.582 25.982 131.218 25.982ZM144.197 31.004H138.203C138.275 31.82 138.521 32.426 138.941 32.822C139.361 33.218 139.961 33.416 140.741 33.416C141.713 33.416 142.601 33.104 143.405 32.48L144.053 34.028C143.645 34.364 143.129 34.634 142.505 34.838C141.893 35.042 141.275 35.144 140.651 35.144C139.211 35.144 138.071 34.736 137.231 33.92C136.403 33.104 135.989 31.988 135.989 30.572C135.989 29.672 136.169 28.874 136.529 28.178C136.889 27.482 137.393 26.942 138.041 26.558C138.701 26.174 139.445 25.982 140.273 25.982C141.485 25.982 142.439 26.372 143.135 27.152C143.843 27.932 144.197 29.006 144.197 30.374V31.004ZM140.327 27.566C139.727 27.566 139.241 27.758 138.869 28.142C138.509 28.526 138.287 29.078 138.203 29.798H142.271C142.247 29.066 142.067 28.514 141.731 28.142C141.395 27.758 140.927 27.566 140.327 27.566ZM151.149 25.982C152.205 25.982 152.991 26.282 153.507 26.882C154.023 27.482 154.281 28.388 154.281 29.6V35H152.031V29.726C152.031 29.042 151.899 28.544 151.635 28.232C151.383 27.92 150.981 27.764 150.429 27.764C149.781 27.764 149.259 27.968 148.863 28.376C148.479 28.784 148.287 29.33 148.287 30.014V35H146.037V26.198H148.233V27.512C148.533 27.02 148.935 26.642 149.439 26.378C149.943 26.114 150.513 25.982 151.149 25.982ZM159.806 35.144C159.026 35.144 158.306 35.048 157.646 34.856C156.998 34.664 156.446 34.388 155.99 34.028L156.62 32.462C157.556 33.146 158.63 33.488 159.842 33.488C160.358 33.488 160.748 33.404 161.012 33.236C161.288 33.068 161.426 32.828 161.426 32.516C161.426 32.252 161.33 32.048 161.138 31.904C160.958 31.76 160.628 31.628 160.148 31.508L158.708 31.184C157.892 31.004 157.286 30.71 156.89 30.302C156.494 29.894 156.296 29.366 156.296 28.718C156.296 28.178 156.446 27.704 156.746 27.296C157.058 26.876 157.484 26.552 158.024 26.324C158.576 26.096 159.212 25.982 159.932 25.982C160.556 25.982 161.156 26.078 161.732 26.27C162.32 26.462 162.836 26.732 163.28 27.08L162.65 28.61C161.738 27.95 160.826 27.62 159.914 27.62C159.422 27.62 159.038 27.71 158.762 27.89C158.486 28.07 158.348 28.322 158.348 28.646C158.348 28.886 158.432 29.084 158.6 29.24C158.78 29.396 159.062 29.516 159.446 29.6L160.94 29.942C161.816 30.134 162.458 30.44 162.866 30.86C163.274 31.268 163.478 31.808 163.478 32.48C163.478 33.296 163.148 33.944 162.488 34.424C161.828 34.904 160.934 35.144 159.806 35.144ZM169.083 25.982C170.319 25.982 171.237 26.282 171.837 26.882C172.437 27.482 172.737 28.406 172.737 29.654V35H170.595V33.65C170.391 34.118 170.067 34.484 169.623 34.748C169.191 35.012 168.687 35.144 168.111 35.144C167.523 35.144 166.989 35.024 166.509 34.784C166.029 34.544 165.651 34.214 165.375 33.794C165.099 33.374 164.961 32.906 164.961 32.39C164.961 31.742 165.123 31.232 165.447 30.86C165.783 30.488 166.323 30.218 167.067 30.05C167.811 29.882 168.837 29.798 170.145 29.798H170.595V29.384C170.595 28.784 170.463 28.352 170.199 28.088C169.947 27.824 169.521 27.692 168.921 27.692C168.453 27.692 167.961 27.776 167.445 27.944C166.941 28.1 166.443 28.322 165.951 28.61L165.321 27.062C165.813 26.75 166.407 26.492 167.103 26.288C167.799 26.084 168.459 25.982 169.083 25.982ZM168.561 33.524C169.161 33.524 169.647 33.326 170.019 32.93C170.403 32.522 170.595 32 170.595 31.364V30.986H170.271C169.467 30.986 168.843 31.022 168.399 31.094C167.955 31.166 167.637 31.292 167.445 31.472C167.253 31.652 167.157 31.898 167.157 32.21C167.157 32.594 167.289 32.912 167.553 33.164C167.817 33.404 168.153 33.524 168.561 33.524ZM175.024 35V22.31H177.274V35H175.024Z" fill="#2B2B2B"/>
<path d="M358.924 37.172H360.784V38H356.08V37.172H357.94V30.764L356.452 31.7L355.996 30.944L358.216 29.54H358.924V37.172ZM365.051 29.444C366.075 29.444 366.863 29.8 367.415 30.512C367.975 31.224 368.255 32.24 368.255 33.56C368.255 34.992 367.967 36.108 367.391 36.908C366.815 37.7 366.011 38.096 364.979 38.096C364.499 38.096 364.027 38.008 363.563 37.832C363.099 37.648 362.691 37.388 362.339 37.052L362.711 36.296C363.111 36.632 363.491 36.88 363.851 37.04C364.219 37.192 364.591 37.268 364.967 37.268C365.695 37.268 366.259 36.948 366.659 36.308C367.059 35.66 367.259 34.748 367.259 33.572V33.416C367.075 33.864 366.775 34.216 366.359 34.472C365.951 34.728 365.487 34.856 364.967 34.856C364.455 34.856 363.999 34.744 363.599 34.52C363.199 34.296 362.887 33.98 362.663 33.572C362.439 33.164 362.327 32.696 362.327 32.168C362.327 31.648 362.443 31.18 362.675 30.764C362.907 30.348 363.231 30.024 363.647 29.792C364.063 29.56 364.531 29.444 365.051 29.444ZM365.111 34.028C365.663 34.028 366.111 33.856 366.455 33.512C366.807 33.16 366.983 32.708 366.983 32.156C366.983 31.596 366.807 31.144 366.455 30.8C366.111 30.448 365.659 30.272 365.099 30.272C364.555 30.272 364.119 30.444 363.791 30.788C363.463 31.132 363.299 31.588 363.299 32.156C363.299 32.724 363.463 33.18 363.791 33.524C364.127 33.86 364.567 34.028 365.111 34.028ZM373.048 29.54H375.892C377.244 29.54 378.288 29.908 379.024 30.644C379.768 31.372 380.14 32.412 380.14 33.764C380.14 35.116 379.768 36.16 379.024 36.896C378.288 37.632 377.244 38 375.892 38H373.048V29.54ZM375.832 37.16C378.024 37.16 379.12 36.028 379.12 33.764C379.12 31.508 378.024 30.38 375.832 30.38H374.032V37.16H375.832ZM381.919 38V29.54H382.903V38H381.919ZM391.457 38L390.521 35.828H386.105L385.169 38H384.161L387.881 29.54H388.733L392.453 38H391.457ZM386.453 35.012H390.173L388.313 30.68L386.453 35.012ZM396.326 38.096C395.006 38.096 393.95 37.74 393.158 37.028L393.542 36.272C393.958 36.624 394.382 36.876 394.814 37.028C395.254 37.18 395.762 37.256 396.338 37.256C397.018 37.256 397.542 37.124 397.91 36.86C398.278 36.596 398.462 36.224 398.462 35.744C398.462 35.464 398.374 35.236 398.198 35.06C398.022 34.884 397.79 34.744 397.502 34.64C397.214 34.536 396.826 34.428 396.338 34.316C395.682 34.164 395.142 34.004 394.718 33.836C394.302 33.668 393.962 33.428 393.698 33.116C393.442 32.804 393.314 32.396 393.314 31.892C393.314 31.412 393.438 30.988 393.686 30.62C393.942 30.244 394.302 29.956 394.766 29.756C395.238 29.548 395.782 29.444 396.398 29.444C396.982 29.444 397.526 29.536 398.03 29.72C398.542 29.904 398.974 30.168 399.326 30.512L398.954 31.268C398.554 30.924 398.146 30.676 397.73 30.524C397.322 30.364 396.878 30.284 396.398 30.284C395.742 30.284 395.226 30.424 394.85 30.704C394.482 30.976 394.298 31.36 394.298 31.856C394.298 32.28 394.462 32.6 394.79 32.816C395.118 33.032 395.614 33.216 396.278 33.368C397.006 33.544 397.578 33.708 397.994 33.86C398.41 34.004 398.754 34.224 399.026 34.52C399.306 34.816 399.446 35.212 399.446 35.708C399.446 36.188 399.318 36.608 399.062 36.968C398.814 37.328 398.454 37.608 397.982 37.808C397.51 38 396.958 38.096 396.326 38.096Z" fill="#2B2B2B"/>
<path d="M338.366 51.228H334.094C334.126 51.908 334.31 52.424 334.646 52.776C334.982 53.12 335.458 53.292 336.074 53.292C336.754 53.292 337.378 53.06 337.946 52.596L338.27 53.304C338.014 53.544 337.686 53.736 337.286 53.88C336.886 54.016 336.478 54.084 336.062 54.084C335.15 54.084 334.43 53.816 333.902 53.28C333.382 52.744 333.122 52.004 333.122 51.06C333.122 50.46 333.238 49.932 333.47 49.476C333.702 49.012 334.026 48.652 334.442 48.396C334.866 48.14 335.346 48.012 335.882 48.012C336.658 48.012 337.266 48.268 337.706 48.78C338.146 49.284 338.366 49.98 338.366 50.868V51.228ZM335.894 48.768C335.382 48.768 334.97 48.928 334.658 49.248C334.354 49.568 334.174 50.02 334.118 50.604H337.514C337.498 50.012 337.35 49.56 337.07 49.248C336.79 48.928 336.398 48.768 335.894 48.768ZM341.778 54.084C340.794 54.084 340.014 53.832 339.438 53.328L339.762 52.608C340.074 52.856 340.39 53.036 340.71 53.148C341.038 53.252 341.406 53.304 341.814 53.304C342.246 53.304 342.574 53.232 342.798 53.088C343.03 52.936 343.146 52.72 343.146 52.44C343.146 52.208 343.07 52.024 342.918 51.888C342.766 51.752 342.514 51.644 342.162 51.564L341.178 51.336C340.682 51.224 340.302 51.032 340.038 50.76C339.774 50.488 339.642 50.152 339.642 49.752C339.642 49.232 339.846 48.812 340.254 48.492C340.662 48.172 341.206 48.012 341.886 48.012C342.294 48.012 342.682 48.08 343.05 48.216C343.418 48.344 343.726 48.532 343.974 48.78L343.65 49.488C343.114 49.032 342.526 48.804 341.886 48.804C341.478 48.804 341.158 48.884 340.926 49.044C340.702 49.196 340.59 49.412 340.59 49.692C340.59 49.924 340.658 50.112 340.794 50.256C340.938 50.392 341.166 50.496 341.478 50.568L342.474 50.808C343.018 50.936 343.422 51.132 343.686 51.396C343.95 51.652 344.082 51.988 344.082 52.404C344.082 52.916 343.874 53.324 343.458 53.628C343.05 53.932 342.49 54.084 341.778 54.084ZM348.073 53.304C348.249 53.304 348.425 53.292 348.601 53.268L348.553 54.036C348.369 54.068 348.169 54.084 347.953 54.084C347.249 54.084 346.717 53.9 346.357 53.532C346.005 53.164 345.829 52.652 345.829 51.996V48.924H344.689V48.156H345.829V46.38H346.801V48.156H348.457V48.924H346.801V51.924C346.801 52.844 347.225 53.304 348.073 53.304ZM351.96 48.012C352.704 48.012 353.256 48.204 353.616 48.588C353.984 48.964 354.168 49.54 354.168 50.316V54H353.22V53.004C353.068 53.348 352.836 53.616 352.524 53.808C352.212 53.992 351.852 54.084 351.444 54.084C351.068 54.084 350.72 54.008 350.4 53.856C350.088 53.704 349.84 53.492 349.656 53.22C349.472 52.948 349.38 52.648 349.38 52.32C349.38 51.88 349.492 51.54 349.716 51.3C349.94 51.052 350.308 50.876 350.82 50.772C351.332 50.66 352.044 50.604 352.956 50.604H353.22V50.208C353.22 49.72 353.12 49.368 352.92 49.152C352.72 48.928 352.396 48.816 351.948 48.816C351.276 48.816 350.608 49.024 349.944 49.44L349.62 48.732C349.924 48.516 350.288 48.344 350.712 48.216C351.144 48.08 351.56 48.012 351.96 48.012ZM351.576 53.316C352.056 53.316 352.448 53.156 352.752 52.836C353.064 52.508 353.22 52.088 353.22 51.576V51.228H353.004C352.3 51.228 351.764 51.26 351.396 51.324C351.028 51.38 350.764 51.48 350.604 51.624C350.452 51.76 350.376 51.964 350.376 52.236C350.376 52.548 350.488 52.808 350.712 53.016C350.944 53.216 351.232 53.316 351.576 53.316ZM361.021 54.084C360.037 54.084 359.257 53.832 358.681 53.328L359.005 52.608C359.317 52.856 359.633 53.036 359.953 53.148C360.281 53.252 360.649 53.304 361.057 53.304C361.489 53.304 361.817 53.232 362.041 53.088C362.273 52.936 362.389 52.72 362.389 52.44C362.389 52.208 362.313 52.024 362.161 51.888C362.009 51.752 361.757 51.644 361.405 51.564L360.421 51.336C359.925 51.224 359.545 51.032 359.281 50.76C359.017 50.488 358.885 50.152 358.885 49.752C358.885 49.232 359.089 48.812 359.497 48.492C359.905 48.172 360.449 48.012 361.129 48.012C361.537 48.012 361.925 48.08 362.293 48.216C362.661 48.344 362.969 48.532 363.217 48.78L362.893 49.488C362.357 49.032 361.769 48.804 361.129 48.804C360.721 48.804 360.401 48.884 360.169 49.044C359.945 49.196 359.833 49.412 359.833 49.692C359.833 49.924 359.901 50.112 360.037 50.256C360.181 50.392 360.409 50.496 360.721 50.568L361.717 50.808C362.261 50.936 362.665 51.132 362.929 51.396C363.193 51.652 363.325 51.988 363.325 52.404C363.325 52.916 363.117 53.324 362.701 53.628C362.293 53.932 361.733 54.084 361.021 54.084ZM369.702 51.228H365.43C365.462 51.908 365.646 52.424 365.982 52.776C366.318 53.12 366.794 53.292 367.41 53.292C368.09 53.292 368.714 53.06 369.282 52.596L369.606 53.304C369.35 53.544 369.022 53.736 368.622 53.88C368.222 54.016 367.814 54.084 367.398 54.084C366.486 54.084 365.766 53.816 365.238 53.28C364.718 52.744 364.458 52.004 364.458 51.06C364.458 50.46 364.574 49.932 364.806 49.476C365.038 49.012 365.362 48.652 365.778 48.396C366.202 48.14 366.682 48.012 367.218 48.012C367.994 48.012 368.602 48.268 369.042 48.78C369.482 49.284 369.702 49.98 369.702 50.868V51.228ZM367.23 48.768C366.718 48.768 366.306 48.928 365.994 49.248C365.69 49.568 365.51 50.02 365.454 50.604H368.85C368.834 50.012 368.686 49.56 368.406 49.248C368.126 48.928 367.734 48.768 367.23 48.768ZM377.638 48.012C378.934 48.012 379.582 48.784 379.582 50.328V54H378.61V50.376C378.61 49.84 378.514 49.448 378.322 49.2C378.138 48.952 377.838 48.828 377.422 48.828C376.934 48.828 376.55 48.992 376.27 49.32C375.99 49.648 375.85 50.096 375.85 50.664V54H374.878V50.376C374.878 49.832 374.782 49.44 374.59 49.2C374.398 48.952 374.094 48.828 373.678 48.828C373.19 48.828 372.806 48.992 372.526 49.32C372.246 49.648 372.106 50.096 372.106 50.664V54H371.134V48.156H372.094V49.08C372.27 48.736 372.514 48.472 372.826 48.288C373.138 48.104 373.498 48.012 373.906 48.012C374.81 48.012 375.406 48.396 375.694 49.164C375.862 48.804 376.118 48.524 376.462 48.324C376.806 48.116 377.198 48.012 377.638 48.012ZM383.729 48.012C384.473 48.012 385.025 48.204 385.385 48.588C385.753 48.964 385.937 49.54 385.937 50.316V54H384.989V53.004C384.837 53.348 384.605 53.616 384.293 53.808C383.981 53.992 383.621 54.084 383.213 54.084C382.837 54.084 382.489 54.008 382.169 53.856C381.857 53.704 381.609 53.492 381.425 53.22C381.241 52.948 381.149 52.648 381.149 52.32C381.149 51.88 381.261 51.54 381.485 51.3C381.709 51.052 382.077 50.876 382.589 50.772C383.101 50.66 383.813 50.604 384.725 50.604H384.989V50.208C384.989 49.72 384.889 49.368 384.689 49.152C384.489 48.928 384.165 48.816 383.717 48.816C383.045 48.816 382.377 49.024 381.713 49.44L381.389 48.732C381.693 48.516 382.057 48.344 382.481 48.216C382.913 48.08 383.329 48.012 383.729 48.012ZM383.345 53.316C383.825 53.316 384.217 53.156 384.521 52.836C384.833 52.508 384.989 52.088 384.989 51.576V51.228H384.773C384.069 51.228 383.533 51.26 383.165 51.324C382.797 51.38 382.533 51.48 382.373 51.624C382.221 51.76 382.145 51.964 382.145 52.236C382.145 52.548 382.257 52.808 382.481 53.016C382.713 53.216 383.001 53.316 383.345 53.316ZM390.656 48.012C392.056 48.012 392.756 48.784 392.756 50.328V54H391.784V50.388C391.784 49.844 391.676 49.448 391.46 49.2C391.252 48.952 390.916 48.828 390.452 48.828C389.916 48.828 389.488 48.992 389.168 49.32C388.848 49.648 388.688 50.092 388.688 50.652V54H387.716V48.156H388.676V49.116C388.868 48.756 389.136 48.484 389.48 48.3C389.824 48.108 390.216 48.012 390.656 48.012ZM396.913 48.012C397.657 48.012 398.209 48.204 398.569 48.588C398.937 48.964 399.121 49.54 399.121 50.316V54H398.173V53.004C398.021 53.348 397.789 53.616 397.477 53.808C397.165 53.992 396.805 54.084 396.397 54.084C396.021 54.084 395.673 54.008 395.353 53.856C395.041 53.704 394.793 53.492 394.609 53.22C394.425 52.948 394.333 52.648 394.333 52.32C394.333 51.88 394.445 51.54 394.669 51.3C394.893 51.052 395.261 50.876 395.773 50.772C396.285 50.66 396.997 50.604 397.909 50.604H398.173V50.208C398.173 49.72 398.073 49.368 397.873 49.152C397.673 48.928 397.349 48.816 396.901 48.816C396.229 48.816 395.561 49.024 394.897 49.44L394.573 48.732C394.877 48.516 395.241 48.344 395.665 48.216C396.097 48.08 396.513 48.012 396.913 48.012ZM396.529 53.316C397.009 53.316 397.401 53.156 397.705 52.836C398.017 52.508 398.173 52.088 398.173 51.576V51.228H397.957C397.253 51.228 396.717 51.26 396.349 51.324C395.981 51.38 395.717 51.48 395.557 51.624C395.405 51.76 395.329 51.964 395.329 52.236C395.329 52.548 395.441 52.808 395.665 53.016C395.897 53.216 396.185 53.316 396.529 53.316Z" fill="#ACACAC"/>
<path d="M48.0017 151.376L399.993 151.376" stroke="#F1F1F1"/>
<path d="M48.0017 175.376L399.993 175.376" stroke="#F1F1F1"/>
<path d="M47.9934 127.376H399.984" stroke="#F1F1F1"/>
<path d="M48.0017 103.376H399.993" stroke="#F1F1F1"/>
<path d="M48.0017 79.376H399.993" stroke="#F1F1F1"/>
<path d="M48.2897 141.364C49.9323 139.728 56.7883 143.385 65.2471 141.31C71.9075 139.677 77.7431 134.43 86.2646 132.845C102.438 129.836 115.646 126.743 123.209 119.556C130.773 112.369 142.273 88 155.662 88C169.051 88 175.728 100.675 180.688 109.025C185.439 117.023 194.548 136.231 209.592 138.349C226.197 140.687 239.717 154.942 259.534 157.338C270.097 158.615 278.596 156.129 288.091 152.267C297.586 148.405 295.754 146.737 317.047 143.76C334.618 141.303 339.299 132.845 356.502 131.827C373.705 130.809 380.582 160 399.489 160" stroke="#FD5B26" stroke-width="2" stroke-linecap="round" stroke-linejoin="round"/>
<path d="M36.4047 176.096C35.4367 176.096 34.7007 175.728 34.1967 174.992C33.6927 174.256 33.4407 173.184 33.4407 171.776C33.4407 170.36 33.6927 169.284 34.1967 168.548C34.7007 167.812 35.4367 167.444 36.4047 167.444C37.3727 167.444 38.1087 167.812 38.6127 168.548C39.1167 169.276 39.3687 170.348 39.3687 171.764C39.3687 173.18 39.1167 174.256 38.6127 174.992C38.1087 175.728 37.3727 176.096 36.4047 176.096ZM36.4047 175.268C37.0767 175.268 37.5727 174.984 37.8927 174.416C38.2127 173.848 38.3727 172.964 38.3727 171.764C38.3727 170.556 38.2127 169.676 37.8927 169.124C37.5807 168.564 37.0847 168.284 36.4047 168.284C35.7327 168.284 35.2367 168.564 34.9167 169.124C34.5967 169.684 34.4367 170.564 34.4367 171.764C34.4367 172.964 34.5967 173.848 34.9167 174.416C35.2367 174.984 35.7327 175.268 36.4047 175.268Z" fill="#6E6E6E"/>
<path d="M30.0134 151.172H31.8734V152H27.1694V151.172H29.0294V144.764L27.5414 145.7L27.0854 144.944L29.3054 143.54H30.0134V151.172ZM36.4047 152.096C35.4367 152.096 34.7007 151.728 34.1967 150.992C33.6927 150.256 33.4407 149.184 33.4407 147.776C33.4407 146.36 33.6927 145.284 34.1967 144.548C34.7007 143.812 35.4367 143.444 36.4047 143.444C37.3727 143.444 38.1087 143.812 38.6127 144.548C39.1167 145.276 39.3687 146.348 39.3687 147.764C39.3687 149.18 39.1167 150.256 38.6127 150.992C38.1087 151.728 37.3727 152.096 36.4047 152.096ZM36.4047 151.268C37.0767 151.268 37.5727 150.984 37.8927 150.416C38.2127 149.848 38.3727 148.964 38.3727 147.764C38.3727 146.556 38.2127 145.676 37.8927 145.124C37.5807 144.564 37.0847 144.284 36.4047 144.284C35.7327 144.284 35.2367 144.564 34.9167 145.124C34.5967 145.684 34.4367 146.564 34.4367 147.764C34.4367 148.964 34.5967 149.848 34.9167 150.416C35.2367 150.984 35.7327 151.268 36.4047 151.268Z" fill="#6E6E6E"/>
<path d="M32.0774 127.172V128H26.6294V127.256L29.5934 123.992C29.9934 123.544 30.2814 123.144 30.4574 122.792C30.6414 122.432 30.7334 122.072 30.7334 121.712C30.7334 121.248 30.5974 120.892 30.3254 120.644C30.0534 120.396 29.6694 120.272 29.1734 120.272C28.3574 120.272 27.5574 120.596 26.7734 121.244L26.4014 120.488C26.7374 120.168 27.1574 119.916 27.6614 119.732C28.1734 119.54 28.6854 119.444 29.1974 119.444C29.9734 119.444 30.5854 119.644 31.0334 120.044C31.4894 120.444 31.7174 120.984 31.7174 121.664C31.7174 122.152 31.6054 122.62 31.3814 123.068C31.1654 123.516 30.8054 124.016 30.3014 124.568L27.9014 127.172H32.0774ZM36.4047 128.096C35.4367 128.096 34.7007 127.728 34.1967 126.992C33.6927 126.256 33.4407 125.184 33.4407 123.776C33.4407 122.36 33.6927 121.284 34.1967 120.548C34.7007 119.812 35.4367 119.444 36.4047 119.444C37.3727 119.444 38.1087 119.812 38.6127 120.548C39.1167 121.276 39.3687 122.348 39.3687 123.764C39.3687 125.18 39.1167 126.256 38.6127 126.992C38.1087 127.728 37.3727 128.096 36.4047 128.096ZM36.4047 127.268C37.0767 127.268 37.5727 126.984 37.8927 126.416C38.2127 125.848 38.3727 124.964 38.3727 123.764C38.3727 122.556 38.2127 121.676 37.8927 121.124C37.5807 120.564 37.0847 120.284 36.4047 120.284C35.7327 120.284 35.2367 120.564 34.9167 121.124C34.5967 121.684 34.4367 122.564 34.4367 123.764C34.4367 124.964 34.5967 125.848 34.9167 126.416C35.2367 126.984 35.7327 127.268 36.4047 127.268Z" fill="#6E6E6E"/>
<path d="M30.3734 99.656C30.8694 99.8 31.2494 100.048 31.5134 100.4C31.7774 100.744 31.9094 101.18 31.9094 101.708C31.9094 102.444 31.6574 103.024 31.1534 103.448C30.6574 103.872 29.9814 104.084 29.1254 104.084C28.5814 104.084 28.0574 103.992 27.5534 103.808C27.0494 103.624 26.6254 103.368 26.2814 103.04L26.6534 102.284C27.4214 102.932 28.2374 103.256 29.1014 103.256C29.7014 103.256 30.1574 103.124 30.4694 102.86C30.7814 102.588 30.9374 102.192 30.9374 101.672C30.9374 100.64 30.2894 100.124 28.9934 100.124H28.0214V99.296H28.8014C29.4254 99.296 29.9054 99.16 30.2414 98.888C30.5774 98.608 30.7454 98.208 30.7454 97.688C30.7454 97.232 30.6094 96.884 30.3374 96.644C30.0654 96.396 29.6774 96.272 29.1734 96.272C28.3574 96.272 27.5574 96.596 26.7734 97.244L26.4014 96.488C26.7454 96.16 27.1654 95.904 27.6614 95.72C28.1574 95.536 28.6734 95.444 29.2094 95.444C29.9774 95.444 30.5854 95.64 31.0334 96.032C31.4894 96.416 31.7174 96.936 31.7174 97.592C31.7174 98.08 31.5974 98.508 31.3574 98.876C31.1254 99.236 30.7974 99.496 30.3734 99.656ZM36.4047 104.096C35.4367 104.096 34.7007 103.728 34.1967 102.992C33.6927 102.256 33.4407 101.184 33.4407 99.776C33.4407 98.36 33.6927 97.284 34.1967 96.548C34.7007 95.812 35.4367 95.444 36.4047 95.444C37.3727 95.444 38.1087 95.812 38.6127 96.548C39.1167 97.276 39.3687 98.348 39.3687 99.764C39.3687 101.18 39.1167 102.256 38.6127 102.992C38.1087 103.728 37.3727 104.096 36.4047 104.096ZM36.4047 103.268C37.0767 103.268 37.5727 102.984 37.8927 102.416C38.2127 101.848 38.3727 100.964 38.3727 99.764C38.3727 98.556 38.2127 97.676 37.8927 97.124C37.5807 96.564 37.0847 96.284 36.4047 96.284C35.7327 96.284 35.2367 96.564 34.9167 97.124C34.5967 97.684 34.4367 98.564 34.4367 99.764C34.4367 100.964 34.5967 101.848 34.9167 102.416C35.2367 102.984 35.7327 103.268 36.4047 103.268Z" fill="#6E6E6E"/>
<path d="M32.3774 77.348V78.164H31.1054V80H30.1334V78.164H26.2214V77.42L30.3014 71.54H31.1054V77.348H32.3774ZM27.2414 77.348H30.1334V73.184L27.2414 77.348ZM36.4047 80.096C35.4367 80.096 34.7007 79.728 34.1967 78.992C33.6927 78.256 33.4407 77.184 33.4407 75.776C33.4407 74.36 33.6927 73.284 34.1967 72.548C34.7007 71.812 35.4367 71.444 36.4047 71.444C37.3727 71.444 38.1087 71.812 38.6127 72.548C39.1167 73.276 39.3687 74.348 39.3687 75.764C39.3687 77.18 39.1167 78.256 38.6127 78.992C38.1087 79.728 37.3727 80.096 36.4047 80.096ZM36.4047 79.268C37.0767 79.268 37.5727 78.984 37.8927 78.416C38.2127 77.848 38.3727 76.964 38.3727 75.764C38.3727 74.556 38.2127 73.676 37.8927 73.124C37.5807 72.564 37.0847 72.284 36.4047 72.284C35.7327 72.284 35.2367 72.564 34.9167 73.124C34.5967 73.684 34.4367 74.564 34.4367 75.764C34.4367 76.964 34.5967 77.848 34.9167 78.416C35.2367 78.984 35.7327 79.268 36.4047 79.268Z" fill="#6E6E6E"/>
<path d="M47.904 195.256L48.624 195.208C49.024 195.176 49.332 195.036 49.548 194.788C49.772 194.532 49.884 194.184 49.884 193.744V187.54H50.868V193.756C50.868 194.452 50.688 194.996 50.328 195.388C49.968 195.78 49.444 195.996 48.756 196.036L47.976 196.084L47.904 195.256ZM55.1901 190.012C55.9341 190.012 56.4861 190.204 56.8461 190.588C57.2141 190.964 57.3981 191.54 57.3981 192.316V196H56.4501V195.004C56.2981 195.348 56.0661 195.616 55.7541 195.808C55.4421 195.992 55.0821 196.084 54.6741 196.084C54.2981 196.084 53.9501 196.008 53.6301 195.856C53.3181 195.704 53.0701 195.492 52.8861 195.22C52.7021 194.948 52.6101 194.648 52.6101 194.32C52.6101 193.88 52.7221 193.54 52.9461 193.3C53.1701 193.052 53.5381 192.876 54.0501 192.772C54.5621 192.66 55.2741 192.604 56.1861 192.604H56.4501V192.208C56.4501 191.72 56.3501 191.368 56.1501 191.152C55.9501 190.928 55.6261 190.816 55.1781 190.816C54.5061 190.816 53.8381 191.024 53.1741 191.44L52.8501 190.732C53.1541 190.516 53.5181 190.344 53.9421 190.216C54.3741 190.08 54.7901 190.012 55.1901 190.012ZM54.8061 195.316C55.2861 195.316 55.6781 195.156 55.9821 194.836C56.2941 194.508 56.4501 194.088 56.4501 193.576V193.228H56.2341C55.5301 193.228 54.9941 193.26 54.6261 193.324C54.2581 193.38 53.9941 193.48 53.8341 193.624C53.6821 193.76 53.6061 193.964 53.6061 194.236C53.6061 194.548 53.7181 194.808 53.9421 195.016C54.1741 195.216 54.4621 195.316 54.8061 195.316ZM62.1173 190.012C63.5173 190.012 64.2173 190.784 64.2173 192.328V196H63.2453V192.388C63.2453 191.844 63.1373 191.448 62.9213 191.2C62.7133 190.952 62.3773 190.828 61.9133 190.828C61.3773 190.828 60.9493 190.992 60.6293 191.32C60.3093 191.648 60.1493 192.092 60.1493 192.652V196H59.1773V190.156H60.1373V191.116C60.3293 190.756 60.5973 190.484 60.9413 190.3C61.2853 190.108 61.6773 190.012 62.1173 190.012Z" fill="#6E6E6E"/>
<path d="M113.044 196V187.54H118.276V188.368H114.016V191.284H118.036V192.112H114.016V196H113.044ZM124.359 193.228H120.087C120.119 193.908 120.303 194.424 120.639 194.776C120.975 195.12 121.451 195.292 122.067 195.292C122.747 195.292 123.371 195.06 123.939 194.596L124.263 195.304C124.007 195.544 123.679 195.736 123.279 195.88C122.879 196.016 122.471 196.084 122.055 196.084C121.143 196.084 120.423 195.816 119.895 195.28C119.375 194.744 119.115 194.004 119.115 193.06C119.115 192.46 119.231 191.932 119.463 191.476C119.695 191.012 120.019 190.652 120.435 190.396C120.859 190.14 121.339 190.012 121.875 190.012C122.651 190.012 123.259 190.268 123.699 190.78C124.139 191.284 124.359 191.98 124.359 192.868V193.228ZM121.887 190.768C121.375 190.768 120.963 190.928 120.651 191.248C120.347 191.568 120.167 192.02 120.111 192.604H123.507C123.491 192.012 123.343 191.56 123.063 191.248C122.783 190.928 122.391 190.768 121.887 190.768ZM129.908 190.168H130.88L128.36 196H127.448L124.94 190.168H125.972L127.928 194.944L129.908 190.168Z" fill="#6E6E6E"/>
<path d="M184.232 187.54H185.036V196H184.136L184.148 189.448L181.4 194.656H180.704L177.944 189.496L177.956 196H177.044V187.54H177.86L181.064 193.672L184.232 187.54ZM189.366 190.012C190.11 190.012 190.662 190.204 191.022 190.588C191.39 190.964 191.574 191.54 191.574 192.316V196H190.626V195.004C190.474 195.348 190.242 195.616 189.93 195.808C189.618 195.992 189.258 196.084 188.85 196.084C188.474 196.084 188.126 196.008 187.806 195.856C187.494 195.704 187.246 195.492 187.062 195.22C186.878 194.948 186.786 194.648 186.786 194.32C186.786 193.88 186.898 193.54 187.122 193.3C187.346 193.052 187.714 192.876 188.226 192.772C188.738 192.66 189.45 192.604 190.362 192.604H190.626V192.208C190.626 191.72 190.526 191.368 190.326 191.152C190.126 190.928 189.802 190.816 189.354 190.816C188.682 190.816 188.014 191.024 187.35 191.44L187.026 190.732C187.33 190.516 187.694 190.344 188.118 190.216C188.55 190.08 188.966 190.012 189.366 190.012ZM188.982 195.316C189.462 195.316 189.854 195.156 190.158 194.836C190.47 194.508 190.626 194.088 190.626 193.576V193.228H190.41C189.706 193.228 189.17 193.26 188.802 193.324C188.434 193.38 188.17 193.48 188.01 193.624C187.858 193.76 187.782 193.964 187.782 194.236C187.782 194.548 187.894 194.808 188.118 195.016C188.35 195.216 188.638 195.316 188.982 195.316ZM196.665 190.852L196.029 190.912C195.429 190.968 194.993 191.156 194.721 191.476C194.457 191.796 194.325 192.192 194.325 192.664V196H193.353V190.156H194.301V191.176C194.629 190.496 195.273 190.116 196.233 190.036L196.581 190.012L196.665 190.852Z" fill="#6E6E6E"/>
<path d="M247.512 196L246.576 193.828H242.16L241.224 196H240.216L243.936 187.54H244.788L248.508 196H247.512ZM242.508 193.012H246.228L244.368 188.68L242.508 193.012ZM252.559 190.012C253.071 190.012 253.523 190.136 253.915 190.384C254.307 190.632 254.611 190.984 254.827 191.44C255.043 191.896 255.151 192.424 255.151 193.024C255.151 193.632 255.043 194.168 254.827 194.632C254.611 195.088 254.307 195.444 253.915 195.7C253.523 195.956 253.071 196.084 252.559 196.084C252.103 196.084 251.703 195.984 251.359 195.784C251.023 195.584 250.767 195.3 250.591 194.932V196H249.619V187.54H250.591V191.164C250.767 190.796 251.023 190.512 251.359 190.312C251.703 190.112 252.103 190.012 252.559 190.012ZM252.367 195.28C252.935 195.28 253.375 195.084 253.687 194.692C253.999 194.292 254.155 193.736 254.155 193.024C254.155 192.328 253.999 191.788 253.687 191.404C253.375 191.02 252.935 190.828 252.367 190.828C251.799 190.828 251.359 191.02 251.047 191.404C250.743 191.788 250.591 192.336 250.591 193.048C250.591 193.76 250.743 194.312 251.047 194.704C251.359 195.088 251.799 195.28 252.367 195.28ZM259.915 190.852L259.279 190.912C258.679 190.968 258.243 191.156 257.971 191.476C257.707 191.796 257.575 192.192 257.575 192.664V196H256.603V190.156H257.551V191.176C257.879 190.496 258.523 190.116 259.483 190.036L259.831 190.012L259.915 190.852Z" fill="#6E6E6E"/>
<path d="M312.232 187.54H313.036V196H312.136L312.148 189.448L309.4 194.656H308.704L305.944 189.496L305.956 196H305.044V187.54H305.86L309.064 193.672L312.232 187.54ZM317.366 190.012C318.11 190.012 318.662 190.204 319.022 190.588C319.39 190.964 319.574 191.54 319.574 192.316V196H318.626V195.004C318.474 195.348 318.242 195.616 317.93 195.808C317.618 195.992 317.258 196.084 316.85 196.084C316.474 196.084 316.126 196.008 315.806 195.856C315.494 195.704 315.246 195.492 315.062 195.22C314.878 194.948 314.786 194.648 314.786 194.32C314.786 193.88 314.898 193.54 315.122 193.3C315.346 193.052 315.714 192.876 316.226 192.772C316.738 192.66 317.45 192.604 318.362 192.604H318.626V192.208C318.626 191.72 318.526 191.368 318.326 191.152C318.126 190.928 317.802 190.816 317.354 190.816C316.682 190.816 316.014 191.024 315.35 191.44L315.026 190.732C315.33 190.516 315.694 190.344 316.118 190.216C316.55 190.08 316.966 190.012 317.366 190.012ZM316.982 195.316C317.462 195.316 317.854 195.156 318.158 194.836C318.47 194.508 318.626 194.088 318.626 193.576V193.228H318.41C317.706 193.228 317.17 193.26 316.802 193.324C316.434 193.38 316.17 193.48 316.01 193.624C315.858 193.76 315.782 193.964 315.782 194.236C315.782 194.548 315.894 194.808 316.118 195.016C316.35 195.216 316.638 195.316 316.982 195.316ZM321.353 196V190.156H322.325V196H321.353ZM321.257 187.624H322.433V188.716H321.257V187.624Z" fill="#6E6E6E"/>
<path d="M367.904 195.256L368.624 195.208C369.024 195.176 369.332 195.036 369.548 194.788C369.772 194.532 369.884 194.184 369.884 193.744V187.54H370.868V193.756C370.868 194.452 370.688 194.996 370.328 195.388C369.968 195.78 369.444 195.996 368.756 196.036L367.976 196.084L367.904 195.256ZM377.734 190.156V196H376.786V195.004C376.602 195.356 376.342 195.624 376.006 195.808C375.678 195.992 375.306 196.084 374.89 196.084C374.194 196.084 373.67 195.892 373.318 195.508C372.966 195.116 372.79 194.54 372.79 193.78V190.156H373.762V193.756C373.762 194.276 373.866 194.66 374.074 194.908C374.282 195.148 374.61 195.268 375.058 195.268C375.57 195.268 375.982 195.104 376.294 194.776C376.606 194.44 376.762 194 376.762 193.456V190.156H377.734ZM382.481 190.012C383.881 190.012 384.581 190.784 384.581 192.328V196H383.609V192.388C383.609 191.844 383.501 191.448 383.285 191.2C383.077 190.952 382.741 190.828 382.277 190.828C381.741 190.828 381.313 190.992 380.993 191.32C380.673 191.648 380.513 192.092 380.513 192.652V196H379.541V190.156H380.501V191.116C380.693 190.756 380.961 190.484 381.305 190.3C381.649 190.108 382.041 190.012 382.481 190.012Z" fill="#6E6E6E"/>
</svg>
