<svg width="80" height="80" viewBox="0 0 80 80" fill="currentColor" xmlns="http://www.w3.org/2000/svg">
<path d="M31.721 68L30.785 65.828H26.369L25.433 68H24.425L28.145 59.54H28.997L32.717 68H31.721ZM26.717 65.012H30.437L28.577 60.68L26.717 65.012ZM34.7997 67.94C34.7997 68.66 34.6237 69.2 34.2717 69.56C33.9197 69.92 33.3757 70.124 32.6397 70.172L32.0997 70.208L32.0277 69.452L32.5677 69.416C33.4077 69.36 33.8277 68.912 33.8277 68.072V62.156H34.7997V67.94ZM33.7317 59.624H34.9077V60.716H33.7317V59.624ZM41.5368 62.156V68H40.5888V67.004C40.4048 67.356 40.1448 67.624 39.8088 67.808C39.4808 67.992 39.1088 68.084 38.6928 68.084C37.9968 68.084 37.4728 67.892 37.1208 67.508C36.7688 67.116 36.5928 66.54 36.5928 65.78V62.156H37.5648V65.756C37.5648 66.276 37.6688 66.66 37.8768 66.908C38.0848 67.148 38.4128 67.268 38.8608 67.268C39.3728 67.268 39.7848 67.104 40.0968 66.776C40.4088 66.44 40.5648 66 40.5648 65.456V62.156H41.5368ZM48.5274 59.54V68H47.5554V66.932C47.3794 67.3 47.1194 67.584 46.7754 67.784C46.4394 67.984 46.0434 68.084 45.5874 68.084C45.0754 68.084 44.6234 67.956 44.2314 67.7C43.8394 67.444 43.5354 67.088 43.3194 66.632C43.1034 66.168 42.9954 65.632 42.9954 65.024C42.9954 64.424 43.1034 63.896 43.3194 63.44C43.5354 62.984 43.8394 62.632 44.2314 62.384C44.6234 62.136 45.0754 62.012 45.5874 62.012C46.0434 62.012 46.4394 62.112 46.7754 62.312C47.1194 62.512 47.3794 62.796 47.5554 63.164V59.54H48.5274ZM45.7794 67.28C46.3474 67.28 46.7834 67.088 47.0874 66.704C47.3994 66.312 47.5554 65.76 47.5554 65.048C47.5554 64.336 47.3994 63.788 47.0874 63.404C46.7834 63.02 46.3474 62.828 45.7794 62.828C45.2114 62.828 44.7674 63.02 44.4474 63.404C44.1354 63.788 43.9794 64.328 43.9794 65.024C43.9794 65.736 44.1354 66.292 44.4474 66.692C44.7674 67.084 45.2114 67.28 45.7794 67.28ZM52.7037 62.012C53.4477 62.012 53.9997 62.204 54.3597 62.588C54.7277 62.964 54.9117 63.54 54.9117 64.316V68H53.9637V67.004C53.8117 67.348 53.5797 67.616 53.2677 67.808C52.9557 67.992 52.5957 68.084 52.1877 68.084C51.8117 68.084 51.4637 68.008 51.1437 67.856C50.8317 67.704 50.5837 67.492 50.3997 67.22C50.2157 66.948 50.1237 66.648 50.1237 66.32C50.1237 65.88 50.2357 65.54 50.4597 65.3C50.6837 65.052 51.0517 64.876 51.5637 64.772C52.0757 64.66 52.7877 64.604 53.6997 64.604H53.9637V64.208C53.9637 63.72 53.8637 63.368 53.6637 63.152C53.4637 62.928 53.1397 62.816 52.6917 62.816C52.0197 62.816 51.3517 63.024 50.6877 63.44L50.3637 62.732C50.6677 62.516 51.0317 62.344 51.4557 62.216C51.8877 62.08 52.3037 62.012 52.7037 62.012ZM52.3197 67.316C52.7997 67.316 53.1917 67.156 53.4957 66.836C53.8077 66.508 53.9637 66.088 53.9637 65.576V65.228H53.7477C53.0437 65.228 52.5077 65.26 52.1397 65.324C51.7717 65.38 51.5077 65.48 51.3477 65.624C51.1957 65.76 51.1197 65.964 51.1197 66.236C51.1197 66.548 51.2317 66.808 51.4557 67.016C51.6877 67.216 51.9757 67.316 52.3197 67.316Z" />
<path fill-rule="evenodd" clip-rule="evenodd" d="M23.333 28C23.333 18.8 30.7997 11.3333 39.9997 11.3333C49.1997 11.3333 56.6663 18.8 56.6663 28C56.6663 37.2 49.1997 44.6666 39.9997 44.6666C30.7997 44.6666 23.333 37.2 23.333 28ZM41.6663 34.6666V38H38.333V34.6666H41.6663ZM39.9997 41.3333C32.6497 41.3333 26.6663 35.35 26.6663 28C26.6663 20.65 32.6497 14.6666 39.9997 14.6666C47.3497 14.6666 53.333 20.65 53.333 28C53.333 35.35 47.3497 41.3333 39.9997 41.3333ZM33.333 24.6666C33.333 20.9833 36.3163 18 39.9997 18C43.683 18 46.6663 20.9833 46.6663 24.6666C46.6663 26.8048 45.3496 27.9555 44.0676 29.0759C42.8514 30.1388 41.6663 31.1744 41.6663 33H38.333C38.333 29.9645 39.9032 28.761 41.2837 27.7028C42.3667 26.8727 43.333 26.132 43.333 24.6666C43.333 22.8333 41.833 21.3333 39.9997 21.3333C38.1663 21.3333 36.6663 22.8333 36.6663 24.6666H33.333Z" />
</svg>
