<svg width="80" height="80" viewBox="0 0 80 80" fill="currentColor" xmlns="http://www.w3.org/2000/svg">
<path d="M13.4932 68V59.54H18.7252V60.368H14.4652V63.284H18.4852V64.112H14.4652V68H13.4932ZM20.0289 68V62.156H21.0009V68H20.0289ZM19.9329 59.624H21.1089V60.716H19.9329V59.624ZM25.758 62.012C27.158 62.012 27.858 62.784 27.858 64.328V68H26.886V64.388C26.886 63.844 26.778 63.448 26.562 63.2C26.354 62.952 26.018 62.828 25.554 62.828C25.018 62.828 24.59 62.992 24.27 63.32C23.95 63.648 23.79 64.092 23.79 64.652V68H22.818V62.156H23.778V63.116C23.97 62.756 24.238 62.484 24.582 62.3C24.926 62.108 25.318 62.012 25.758 62.012ZM32.0143 62.012C32.7583 62.012 33.3103 62.204 33.6703 62.588C34.0383 62.964 34.2223 63.54 34.2223 64.316V68H33.2743V67.004C33.1223 67.348 32.8903 67.616 32.5783 67.808C32.2663 67.992 31.9063 68.084 31.4983 68.084C31.1223 68.084 30.7743 68.008 30.4543 67.856C30.1423 67.704 29.8943 67.492 29.7103 67.22C29.5263 66.948 29.4343 66.648 29.4343 66.32C29.4343 65.88 29.5463 65.54 29.7703 65.3C29.9943 65.052 30.3623 64.876 30.8743 64.772C31.3863 64.66 32.0983 64.604 33.0103 64.604H33.2743V64.208C33.2743 63.72 33.1743 63.368 32.9743 63.152C32.7743 62.928 32.4503 62.816 32.0023 62.816C31.3303 62.816 30.6623 63.024 29.9983 63.44L29.6743 62.732C29.9783 62.516 30.3423 62.344 30.7663 62.216C31.1983 62.08 31.6143 62.012 32.0143 62.012ZM31.6303 67.316C32.1103 67.316 32.5023 67.156 32.8063 66.836C33.1183 66.508 33.2743 66.088 33.2743 65.576V65.228H33.0583C32.3543 65.228 31.8183 65.26 31.4503 65.324C31.0823 65.38 30.8183 65.48 30.6583 65.624C30.5063 65.76 30.4303 65.964 30.4303 66.236C30.4303 66.548 30.5423 66.808 30.7663 67.016C30.9983 67.216 31.2863 67.316 31.6303 67.316ZM38.9416 62.012C40.3416 62.012 41.0416 62.784 41.0416 64.328V68H40.0696V64.388C40.0696 63.844 39.9616 63.448 39.7456 63.2C39.5376 62.952 39.2016 62.828 38.7376 62.828C38.2016 62.828 37.7736 62.992 37.4536 63.32C37.1336 63.648 36.9736 64.092 36.9736 64.652V68H36.0016V62.156H36.9616V63.116C37.1536 62.756 37.4216 62.484 37.7656 62.3C38.1096 62.108 38.5016 62.012 38.9416 62.012ZM45.2939 68.084C44.7179 68.084 44.2179 67.96 43.7939 67.712C43.3699 67.464 43.0419 67.116 42.8099 66.668C42.5859 66.212 42.4739 65.68 42.4739 65.072C42.4739 64.464 42.5899 63.932 42.8219 63.476C43.0619 63.012 43.3939 62.652 43.8179 62.396C44.2499 62.14 44.7539 62.012 45.3299 62.012C45.7219 62.012 46.1059 62.084 46.4819 62.228C46.8579 62.364 47.1619 62.548 47.3939 62.78L47.0699 63.5C46.5179 63.052 45.9579 62.828 45.3899 62.828C44.7899 62.828 44.3219 63.024 43.9859 63.416C43.6499 63.808 43.4819 64.36 43.4819 65.072C43.4819 65.776 43.6499 66.32 43.9859 66.704C44.3219 67.088 44.7899 67.28 45.3899 67.28C45.9579 67.28 46.5179 67.056 47.0699 66.608L47.3939 67.328C47.1459 67.56 46.8339 67.744 46.4579 67.88C46.0819 68.016 45.6939 68.084 45.2939 68.084ZM53.4601 65.228H49.1881C49.2201 65.908 49.4041 66.424 49.7401 66.776C50.0761 67.12 50.5521 67.292 51.1681 67.292C51.8481 67.292 52.4721 67.06 53.0401 66.596L53.3641 67.304C53.1081 67.544 52.7801 67.736 52.3801 67.88C51.9801 68.016 51.5721 68.084 51.1561 68.084C50.2441 68.084 49.5241 67.816 48.9961 67.28C48.4761 66.744 48.2161 66.004 48.2161 65.06C48.2161 64.46 48.3321 63.932 48.5641 63.476C48.7961 63.012 49.1201 62.652 49.5361 62.396C49.9601 62.14 50.4401 62.012 50.9761 62.012C51.7521 62.012 52.3601 62.268 52.8001 62.78C53.2401 63.284 53.4601 63.98 53.4601 64.868V65.228ZM50.9881 62.768C50.4761 62.768 50.0641 62.928 49.7521 63.248C49.4481 63.568 49.2681 64.02 49.2121 64.604H52.6081C52.5921 64.012 52.4441 63.56 52.1641 63.248C51.8841 62.928 51.4921 62.768 50.9881 62.768ZM54.8922 68V62.156H55.8642V68H54.8922ZM54.7962 59.624H55.9722V60.716H54.7962V59.624ZM60.9933 62.852L60.3573 62.912C59.7573 62.968 59.3213 63.156 59.0493 63.476C58.7853 63.796 58.6533 64.192 58.6533 64.664V68H57.6813V62.156H58.6293V63.176C58.9573 62.496 59.6013 62.116 60.5613 62.036L60.9093 62.012L60.9933 62.852ZM64.2185 68.084C63.6665 68.084 63.1785 67.96 62.7545 67.712C62.3385 67.464 62.0145 67.112 61.7825 66.656C61.5585 66.192 61.4465 65.656 61.4465 65.048C61.4465 64.44 61.5585 63.908 61.7825 63.452C62.0145 62.988 62.3385 62.632 62.7545 62.384C63.1785 62.136 63.6665 62.012 64.2185 62.012C64.7705 62.012 65.2585 62.136 65.6825 62.384C66.1065 62.632 66.4305 62.988 66.6545 63.452C66.8865 63.908 67.0025 64.44 67.0025 65.048C67.0025 65.656 66.8865 66.192 66.6545 66.656C66.4305 67.112 66.1065 67.464 65.6825 67.712C65.2585 67.96 64.7705 68.084 64.2185 68.084ZM64.2185 67.28C64.7945 67.28 65.2345 67.092 65.5385 66.716C65.8505 66.332 66.0065 65.776 66.0065 65.048C66.0065 64.336 65.8505 63.788 65.5385 63.404C65.2265 63.012 64.7865 62.816 64.2185 62.816C63.6505 62.816 63.2105 63.012 62.8985 63.404C62.5865 63.788 62.4305 64.336 62.4305 65.048C62.4305 65.768 62.5825 66.32 62.8865 66.704C63.1985 67.088 63.6425 67.28 64.2185 67.28Z" />
<path d="M40.6499 26.1667C36.8666 25.1833 35.6499 24.1667 35.6499 22.5833C35.6499 20.7667 37.3333 19.5 40.1499 19.5C43.1166 19.5 44.2166 20.9167 44.3166 23H47.9999C47.8833 20.1333 46.1333 17.5 42.6499 16.65V13H37.6499V16.6C34.4166 17.3 31.8166 19.4 31.8166 22.6167C31.8166 26.4667 34.9999 28.3833 39.6499 29.5C43.8166 30.5 44.6499 31.9667 44.6499 33.5167C44.6499 34.6667 43.8333 36.5 40.1499 36.5C36.7166 36.5 35.3666 34.9667 35.1833 33H31.5166C31.7166 36.65 34.4499 38.7 37.6499 39.3833V43H42.6499V39.4167C45.8999 38.8 48.4833 36.9167 48.4833 33.5C48.4833 28.7667 44.4333 27.15 40.6499 26.1667Z" />
</svg>
