<svg width="32" height="32" viewBox="0 0 32 32" fill="currentColor" xmlns="http://www.w3.org/2000/svg">
<path fill-rule="evenodd" clip-rule="evenodd" d="M15.9998 2.6665C8.63984 2.6665 2.6665 8.63984 2.6665 15.9998C2.6665 23.3598 8.63984 29.3332 15.9998 29.3332C23.3598 29.3332 29.3332 23.3598 29.3332 15.9998C29.3332 8.63984 23.3598 2.6665 15.9998 2.6665ZM9.4265 24.3732C9.99984 23.1732 13.4932 21.9998 15.9998 21.9998C18.5065 21.9998 22.0132 23.1732 22.5732 24.3732C20.7598 25.8132 18.4798 26.6665 15.9998 26.6665C13.5198 26.6665 11.2398 25.8132 9.4265 24.3732ZM15.9998 19.3332C17.9465 19.3332 22.5732 20.1198 24.4798 22.4398C25.8398 20.6532 26.6665 18.4265 26.6665 15.9998C26.6665 10.1198 21.8798 5.33317 15.9998 5.33317C10.1198 5.33317 5.33317 10.1198 5.33317 15.9998C5.33317 18.4265 6.15984 20.6532 7.51984 22.4398C9.4265 20.1198 14.0532 19.3332 15.9998 19.3332ZM15.9998 7.99984C13.4132 7.99984 11.3332 10.0798 11.3332 12.6665C11.3332 15.2532 13.4132 17.3332 15.9998 17.3332C18.5865 17.3332 20.6665 15.2532 20.6665 12.6665C20.6665 10.0798 18.5865 7.99984 15.9998 7.99984ZM13.9998 12.6665C13.9998 13.7732 14.8932 14.6665 15.9998 14.6665C17.1065 14.6665 17.9998 13.7732 17.9998 12.6665C17.9998 11.5598 17.1065 10.6665 15.9998 10.6665C14.8932 10.6665 13.9998 11.5598 13.9998 12.6665Z" />
</svg>
