<svg width="80" height="80" viewBox="0 0 80 80" fill="currentColor" xmlns="http://www.w3.org/2000/svg">
<path d="M27.4554 68L26.5194 65.828H22.1034L21.1674 68H20.1594L23.8794 59.54H24.7314L28.4514 68H27.4554ZM22.4514 65.012H26.1714L24.3114 60.68L22.4514 65.012ZM30.5341 67.94C30.5341 68.66 30.3581 69.2 30.0061 69.56C29.6541 69.92 29.1101 70.124 28.3741 70.172L27.8341 70.208L27.7621 69.452L28.3021 69.416C29.1421 69.36 29.5621 68.912 29.5621 68.072V62.156H30.5341V67.94ZM29.4661 59.624H30.6421V60.716H29.4661V59.624ZM37.2712 62.156V68H36.3232V67.004C36.1392 67.356 35.8792 67.624 35.5432 67.808C35.2152 67.992 34.8432 68.084 34.4272 68.084C33.7312 68.084 33.2072 67.892 32.8552 67.508C32.5032 67.116 32.3272 66.54 32.3272 65.78V62.156H33.2992V65.756C33.2992 66.276 33.4032 66.66 33.6112 66.908C33.8192 67.148 34.1472 67.268 34.5952 67.268C35.1072 67.268 35.5192 67.104 35.8312 66.776C36.1432 66.44 36.2992 66 36.2992 65.456V62.156H37.2712ZM41.0577 68.084C40.0737 68.084 39.2937 67.832 38.7177 67.328L39.0417 66.608C39.3537 66.856 39.6697 67.036 39.9897 67.148C40.3177 67.252 40.6857 67.304 41.0937 67.304C41.5257 67.304 41.8537 67.232 42.0777 67.088C42.3097 66.936 42.4257 66.72 42.4257 66.44C42.4257 66.208 42.3497 66.024 42.1977 65.888C42.0457 65.752 41.7937 65.644 41.4417 65.564L40.4577 65.336C39.9617 65.224 39.5817 65.032 39.3177 64.76C39.0537 64.488 38.9217 64.152 38.9217 63.752C38.9217 63.232 39.1257 62.812 39.5337 62.492C39.9417 62.172 40.4857 62.012 41.1657 62.012C41.5737 62.012 41.9617 62.08 42.3297 62.216C42.6977 62.344 43.0057 62.532 43.2537 62.78L42.9297 63.488C42.3937 63.032 41.8057 62.804 41.1657 62.804C40.7577 62.804 40.4377 62.884 40.2057 63.044C39.9817 63.196 39.8697 63.412 39.8697 63.692C39.8697 63.924 39.9377 64.112 40.0737 64.256C40.2177 64.392 40.4457 64.496 40.7577 64.568L41.7537 64.808C42.2977 64.936 42.7017 65.132 42.9657 65.396C43.2297 65.652 43.3617 65.988 43.3617 66.404C43.3617 66.916 43.1537 67.324 42.7377 67.628C42.3297 67.932 41.7697 68.084 41.0577 68.084ZM47.3528 67.304C47.5288 67.304 47.7048 67.292 47.8808 67.268L47.8328 68.036C47.6488 68.068 47.4488 68.084 47.2328 68.084C46.5288 68.084 45.9968 67.9 45.6368 67.532C45.2848 67.164 45.1088 66.652 45.1088 65.996V62.924H43.9688V62.156H45.1088V60.38H46.0808V62.156H47.7368V62.924H46.0808V65.924C46.0808 66.844 46.5048 67.304 47.3528 67.304ZM53.7589 65.228H49.4869C49.5189 65.908 49.7029 66.424 50.0389 66.776C50.3749 67.12 50.8509 67.292 51.4669 67.292C52.1469 67.292 52.7709 67.06 53.3389 66.596L53.6629 67.304C53.4069 67.544 53.0789 67.736 52.6789 67.88C52.2789 68.016 51.8709 68.084 51.4549 68.084C50.5429 68.084 49.8229 67.816 49.2949 67.28C48.7749 66.744 48.5149 66.004 48.5149 65.06C48.5149 64.46 48.6309 63.932 48.8629 63.476C49.0949 63.012 49.4189 62.652 49.8349 62.396C50.2589 62.14 50.7389 62.012 51.2749 62.012C52.0509 62.012 52.6589 62.268 53.0989 62.78C53.5389 63.284 53.7589 63.98 53.7589 64.868V65.228ZM51.2869 62.768C50.7749 62.768 50.3629 62.928 50.0509 63.248C49.7469 63.568 49.5669 64.02 49.5109 64.604H52.9069C52.8909 64.012 52.7429 63.56 52.4629 63.248C52.1829 62.928 51.7909 62.768 51.2869 62.768ZM57.171 68.084C56.187 68.084 55.407 67.832 54.831 67.328L55.155 66.608C55.467 66.856 55.783 67.036 56.103 67.148C56.431 67.252 56.799 67.304 57.207 67.304C57.639 67.304 57.967 67.232 58.191 67.088C58.423 66.936 58.539 66.72 58.539 66.44C58.539 66.208 58.463 66.024 58.311 65.888C58.159 65.752 57.907 65.644 57.555 65.564L56.571 65.336C56.075 65.224 55.695 65.032 55.431 64.76C55.167 64.488 55.035 64.152 55.035 63.752C55.035 63.232 55.239 62.812 55.647 62.492C56.055 62.172 56.599 62.012 57.279 62.012C57.687 62.012 58.075 62.08 58.443 62.216C58.811 62.344 59.119 62.532 59.367 62.78L59.043 63.488C58.507 63.032 57.919 62.804 57.279 62.804C56.871 62.804 56.551 62.884 56.319 63.044C56.095 63.196 55.983 63.412 55.983 63.692C55.983 63.924 56.051 64.112 56.187 64.256C56.331 64.392 56.559 64.496 56.871 64.568L57.867 64.808C58.411 64.936 58.815 65.132 59.079 65.396C59.343 65.652 59.475 65.988 59.475 66.404C59.475 66.916 59.267 67.324 58.851 67.628C58.443 67.932 57.883 68.084 57.171 68.084Z" />
<path fill-rule="evenodd" clip-rule="evenodd" d="M52.5036 28C52.5036 28.5666 52.4536 29.1 52.387 29.6333L55.9036 32.3833C56.2203 32.6333 56.3036 33.0833 56.1036 33.45L52.7703 39.2166C52.6203 39.4833 52.337 39.6333 52.0536 39.6333C51.9536 39.6333 51.8536 39.6166 51.7536 39.5833L47.6036 37.9166C46.737 38.5666 45.8036 39.1333 44.787 39.55L44.1536 43.9666C44.1036 44.3666 43.7536 44.6666 43.337 44.6666H36.6703C36.2536 44.6666 35.9036 44.3666 35.8536 43.9666L35.2203 39.55C34.2036 39.1333 33.2703 38.5833 32.4036 37.9166L28.2536 39.5833C28.1703 39.6166 28.0703 39.6333 27.9703 39.6333C27.6703 39.6333 27.387 39.4833 27.237 39.2166L23.9036 33.45C23.7036 33.0833 23.787 32.6333 24.1036 32.3833L27.6203 29.6333C27.5536 29.1 27.5036 28.55 27.5036 28C27.5036 27.45 27.5536 26.9 27.6203 26.3666L24.1036 23.6166C23.787 23.3666 23.687 22.9166 23.9036 22.55L27.237 16.7833C27.387 16.5166 27.6703 16.3666 27.9536 16.3666C28.0536 16.3666 28.1536 16.3833 28.2536 16.4166L32.4036 18.0833C33.2703 17.4333 34.2036 16.8666 35.2203 16.45L35.8536 12.0333C35.9036 11.6333 36.2536 11.3333 36.6703 11.3333H43.337C43.7536 11.3333 44.1036 11.6333 44.1536 12.0333L44.787 16.45C45.8036 16.8666 46.737 17.4166 47.6036 18.0833L51.7536 16.4166C51.837 16.3833 51.937 16.3666 52.037 16.3666C52.337 16.3666 52.6203 16.5166 52.7703 16.7833L56.1036 22.55C56.3036 22.9166 56.2203 23.3666 55.9036 23.6166L52.387 26.3666C52.4536 26.9 52.5036 27.4333 52.5036 28ZM49.1703 28C49.1703 27.65 49.1536 27.3 49.087 26.7833L48.8536 24.9L50.337 23.7333L52.1203 22.3166L50.9536 20.3L48.837 21.15L47.0703 21.8666L45.5536 20.7C44.887 20.2 44.2203 19.8166 43.5036 19.5166L41.737 18.8L41.4703 16.9166L41.1536 14.6666H38.837L38.5036 16.9166L38.237 18.8L36.4703 19.5166C35.787 19.8 35.1036 20.2 34.387 20.7333L32.887 21.8666L31.1536 21.1666L29.037 20.3166L27.8703 22.3333L29.6703 23.7333L31.1536 24.9L30.9203 26.7833C30.8703 27.2833 30.837 27.6666 30.837 28C30.837 28.3333 30.8703 28.7166 30.9203 29.2333L31.1536 31.1166L29.6703 32.2833L27.8703 33.6833L29.037 35.7L31.1536 34.85L32.9203 34.1333L34.437 35.3C35.1036 35.8 35.7703 36.1833 36.487 36.4833L38.2536 37.2L38.5203 39.0833L38.837 41.3333H41.1703L41.5036 39.0833L41.7703 37.2L43.537 36.4833C44.2203 36.2 44.9036 35.8 45.6203 35.2666L47.1203 34.1333L48.8536 34.8333L50.9703 35.6833L52.137 33.6666L50.337 32.2666L48.8536 31.1L49.087 29.2166C49.137 28.7166 49.1703 28.35 49.1703 28ZM40.0036 21.3333C36.3203 21.3333 33.337 24.3166 33.337 28C33.337 31.6833 36.3203 34.6666 40.0036 34.6666C43.687 34.6666 46.6703 31.6833 46.6703 28C46.6703 24.3166 43.687 21.3333 40.0036 21.3333ZM36.6703 28C36.6703 29.8333 38.1703 31.3333 40.0036 31.3333C41.837 31.3333 43.337 29.8333 43.337 28C43.337 26.1666 41.837 24.6666 40.0036 24.6666C38.1703 24.6666 36.6703 26.1666 36.6703 28Z" />
</svg>
