<svg width="407" height="232" viewBox="0 0 407 232" fill="none" xmlns="http://www.w3.org/2000/svg">
<path d="M344.764 13L343.672 10.466H338.52L337.428 13H336.252L340.592 3.13H341.586L345.926 13H344.764ZM338.926 9.514H343.266L341.096 4.46L338.926 9.514ZM350.652 6.014C351.249 6.014 351.777 6.15867 352.234 6.448C352.691 6.73733 353.046 7.148 353.298 7.68C353.55 8.212 353.676 8.828 353.676 9.528C353.676 10.2373 353.55 10.8627 353.298 11.404C353.046 11.936 352.691 12.3513 352.234 12.65C351.777 12.9487 351.249 13.098 350.652 13.098C350.12 13.098 349.653 12.9813 349.252 12.748C348.86 12.5147 348.561 12.1833 348.356 11.754V13H347.222V3.13H348.356V7.358C348.561 6.92867 348.86 6.59733 349.252 6.364C349.653 6.13067 350.12 6.014 350.652 6.014ZM350.428 12.16C351.091 12.16 351.604 11.9313 351.968 11.474C352.332 11.0073 352.514 10.3587 352.514 9.528C352.514 8.716 352.332 8.086 351.968 7.638C351.604 7.19 351.091 6.966 350.428 6.966C349.765 6.966 349.252 7.19 348.888 7.638C348.533 8.086 348.356 8.72533 348.356 9.556C348.356 10.3867 348.533 11.0307 348.888 11.488C349.252 11.936 349.765 12.16 350.428 12.16ZM361.082 9.766H356.098C356.136 10.5593 356.35 11.1613 356.742 11.572C357.134 11.9733 357.69 12.174 358.408 12.174C359.202 12.174 359.93 11.9033 360.592 11.362L360.97 12.188C360.672 12.468 360.289 12.692 359.822 12.86C359.356 13.0187 358.88 13.098 358.394 13.098C357.33 13.098 356.49 12.7853 355.874 12.16C355.268 11.5347 354.964 10.6713 354.964 9.57C354.964 8.87 355.1 8.254 355.37 7.722C355.641 7.18067 356.019 6.76067 356.504 6.462C356.999 6.16333 357.559 6.014 358.184 6.014C359.09 6.014 359.799 6.31267 360.312 6.91C360.826 7.498 361.082 8.31 361.082 9.346V9.766ZM358.198 6.896C357.601 6.896 357.12 7.08267 356.756 7.456C356.402 7.82933 356.192 8.35667 356.126 9.038H360.088C360.07 8.34733 359.897 7.82 359.57 7.456C359.244 7.08267 358.786 6.896 358.198 6.896ZM366.617 6.994L365.875 7.064C365.175 7.12933 364.666 7.34867 364.349 7.722C364.041 8.09533 363.887 8.55733 363.887 9.108V13H362.753V6.182H363.859V7.372C364.242 6.57867 364.993 6.13533 366.113 6.042L366.519 6.014L366.617 6.994ZM371.232 12.188C371.437 12.188 371.642 12.174 371.848 12.146L371.792 13.042C371.577 13.0793 371.344 13.098 371.092 13.098C370.27 13.098 369.65 12.8833 369.23 12.454C368.819 12.0247 368.614 11.4273 368.614 10.662V7.078H367.284V6.182H368.614V4.11H369.748V6.182H371.68V7.078H369.748V10.578C369.748 11.6513 370.242 12.188 371.232 12.188ZM375.821 13.098C375.177 13.098 374.608 12.9533 374.113 12.664C373.628 12.3747 373.25 11.964 372.979 11.432C372.718 10.8907 372.587 10.2653 372.587 9.556C372.587 8.84667 372.718 8.226 372.979 7.694C373.25 7.15267 373.628 6.73733 374.113 6.448C374.608 6.15867 375.177 6.014 375.821 6.014C376.465 6.014 377.035 6.15867 377.529 6.448C378.024 6.73733 378.402 7.15267 378.663 7.694C378.934 8.226 379.069 8.84667 379.069 9.556C379.069 10.2653 378.934 10.8907 378.663 11.432C378.402 11.964 378.024 12.3747 377.529 12.664C377.035 12.9533 376.465 13.098 375.821 13.098ZM375.821 12.16C376.493 12.16 377.007 11.9407 377.361 11.502C377.725 11.054 377.907 10.4053 377.907 9.556C377.907 8.72533 377.725 8.086 377.361 7.638C376.997 7.18067 376.484 6.952 375.821 6.952C375.159 6.952 374.645 7.18067 374.281 7.638C373.917 8.086 373.735 8.72533 373.735 9.556C373.735 10.396 373.913 11.04 374.267 11.488C374.631 11.936 375.149 12.16 375.821 12.16ZM383.069 13.098C381.921 13.098 381.011 12.804 380.339 12.216L380.717 11.376C381.081 11.6653 381.45 11.8753 381.823 12.006C382.206 12.1273 382.635 12.188 383.111 12.188C383.615 12.188 383.998 12.104 384.259 11.936C384.53 11.7587 384.665 11.5067 384.665 11.18C384.665 10.9093 384.576 10.6947 384.399 10.536C384.222 10.3773 383.928 10.2513 383.517 10.158L382.369 9.892C381.79 9.76133 381.347 9.53733 381.039 9.22C380.731 8.90267 380.577 8.51067 380.577 8.044C380.577 7.43733 380.815 6.94733 381.291 6.574C381.767 6.20067 382.402 6.014 383.195 6.014C383.671 6.014 384.124 6.09333 384.553 6.252C384.982 6.40133 385.342 6.62067 385.631 6.91L385.253 7.736C384.628 7.204 383.942 6.938 383.195 6.938C382.719 6.938 382.346 7.03133 382.075 7.218C381.814 7.39533 381.683 7.64733 381.683 7.974C381.683 8.24467 381.762 8.464 381.921 8.632C382.089 8.79067 382.355 8.912 382.719 8.996L383.881 9.276C384.516 9.42533 384.987 9.654 385.295 9.962C385.603 10.2607 385.757 10.6527 385.757 11.138C385.757 11.7353 385.514 12.2113 385.029 12.566C384.553 12.9207 383.9 13.098 383.069 13.098Z" fill="#6E6E6E"/>
<path d="M3.24534 13V3.13H9.34934V4.096H4.37934V7.498H9.06934V8.464H4.37934V13H3.24534ZM10.8703 13V6.182H12.0043V13H10.8703ZM10.7583 3.228H12.1303V4.502H10.7583V3.228ZM17.5542 6.014C19.1876 6.014 20.0042 6.91467 20.0042 8.716V13H18.8702V8.786C18.8702 8.15133 18.7442 7.68933 18.4922 7.4C18.2496 7.11067 17.8576 6.966 17.3162 6.966C16.6909 6.966 16.1916 7.15733 15.8182 7.54C15.4449 7.92267 15.2582 8.44067 15.2582 9.094V13H14.1242V6.182H15.2442V7.302C15.4682 6.882 15.7809 6.56467 16.1822 6.35C16.5836 6.126 17.0409 6.014 17.5542 6.014ZM24.8533 6.014C25.7213 6.014 26.3653 6.238 26.7853 6.686C27.2146 7.12467 27.4293 7.79667 27.4293 8.702V13H26.3233V11.838C26.1459 12.2393 25.8753 12.552 25.5113 12.776C25.1473 12.9907 24.7273 13.098 24.2513 13.098C23.8126 13.098 23.4066 13.0093 23.0333 12.832C22.6693 12.6547 22.3799 12.4073 22.1653 12.09C21.9506 11.7727 21.8433 11.4227 21.8433 11.04C21.8433 10.5267 21.9739 10.13 22.2353 9.85C22.4966 9.56067 22.9259 9.35533 23.5233 9.234C24.1206 9.10333 24.9513 9.038 26.0153 9.038H26.3233V8.576C26.3233 8.00667 26.2066 7.596 25.9733 7.344C25.7399 7.08267 25.3619 6.952 24.8393 6.952C24.0553 6.952 23.2759 7.19467 22.5013 7.68L22.1233 6.854C22.4779 6.602 22.9026 6.40133 23.3973 6.252C23.9013 6.09333 24.3866 6.014 24.8533 6.014ZM24.4053 12.202C24.9653 12.202 25.4226 12.0153 25.7773 11.642C26.1413 11.2593 26.3233 10.7693 26.3233 10.172V9.766H26.0713C25.2499 9.766 24.6246 9.80333 24.1953 9.878C23.7659 9.94333 23.4579 10.06 23.2713 10.228C23.0939 10.3867 23.0053 10.6247 23.0053 10.942C23.0053 11.306 23.1359 11.6093 23.3973 11.852C23.6679 12.0853 24.0039 12.202 24.4053 12.202ZM29.5051 13V3.13H30.6391V13H29.5051ZM32.759 13V6.182H33.893V13H32.759ZM32.647 3.228H34.019V4.502H32.647V3.228ZM37.0349 12.104H41.4169V13H35.6349V12.216L39.8909 7.078H35.7749V6.182H41.2629V7.008L37.0349 12.104ZM45.7575 6.014C46.6255 6.014 47.2695 6.238 47.6895 6.686C48.1189 7.12467 48.3335 7.79667 48.3335 8.702V13H47.2275V11.838C47.0502 12.2393 46.7795 12.552 46.4155 12.776C46.0515 12.9907 45.6315 13.098 45.1555 13.098C44.7169 13.098 44.3109 13.0093 43.9375 12.832C43.5735 12.6547 43.2842 12.4073 43.0695 12.09C42.8549 11.7727 42.7475 11.4227 42.7475 11.04C42.7475 10.5267 42.8782 10.13 43.1395 9.85C43.4009 9.56067 43.8302 9.35533 44.4275 9.234C45.0249 9.10333 45.8555 9.038 46.9195 9.038H47.2275V8.576C47.2275 8.00667 47.1109 7.596 46.8775 7.344C46.6442 7.08267 46.2662 6.952 45.7435 6.952C44.9595 6.952 44.1802 7.19467 43.4055 7.68L43.0275 6.854C43.3822 6.602 43.8069 6.40133 44.3015 6.252C44.8055 6.09333 45.2909 6.014 45.7575 6.014ZM45.3095 12.202C45.8695 12.202 46.3269 12.0153 46.6815 11.642C47.0455 11.2593 47.2275 10.7693 47.2275 10.172V9.766H46.9755C46.1542 9.766 45.5289 9.80333 45.0995 9.878C44.6702 9.94333 44.3622 10.06 44.1755 10.228C43.9982 10.3867 43.9095 10.6247 43.9095 10.942C43.9095 11.306 44.0402 11.6093 44.3015 11.852C44.5722 12.0853 44.9082 12.202 45.3095 12.202ZM56.4574 3.13V13H55.3234V11.754C55.118 12.1833 54.8147 12.5147 54.4134 12.748C54.0214 12.9813 53.5594 13.098 53.0274 13.098C52.43 13.098 51.9027 12.9487 51.4454 12.65C50.988 12.3513 50.6334 11.936 50.3814 11.404C50.1294 10.8627 50.0034 10.2373 50.0034 9.528C50.0034 8.828 50.1294 8.212 50.3814 7.68C50.6334 7.148 50.988 6.73733 51.4454 6.448C51.9027 6.15867 52.43 6.014 53.0274 6.014C53.5594 6.014 54.0214 6.13067 54.4134 6.364C54.8147 6.59733 55.118 6.92867 55.3234 7.358V3.13H56.4574ZM53.2514 12.16C53.914 12.16 54.4227 11.936 54.7774 11.488C55.1414 11.0307 55.3234 10.3867 55.3234 9.556C55.3234 8.72533 55.1414 8.086 54.7774 7.638C54.4227 7.19 53.914 6.966 53.2514 6.966C52.5887 6.966 52.0707 7.19 51.6974 7.638C51.3334 8.086 51.1514 8.716 51.1514 9.528C51.1514 10.3587 51.3334 11.0073 51.6974 11.474C52.0707 11.9313 52.5887 12.16 53.2514 12.16ZM61.3858 13.098C60.7418 13.098 60.1725 12.9533 59.6778 12.664C59.1925 12.3747 58.8145 11.964 58.5438 11.432C58.2825 10.8907 58.1518 10.2653 58.1518 9.556C58.1518 8.84667 58.2825 8.226 58.5438 7.694C58.8145 7.15267 59.1925 6.73733 59.6778 6.448C60.1725 6.15867 60.7418 6.014 61.3858 6.014C62.0298 6.014 62.5991 6.15867 63.0938 6.448C63.5885 6.73733 63.9665 7.15267 64.2278 7.694C64.4985 8.226 64.6338 8.84667 64.6338 9.556C64.6338 10.2653 64.4985 10.8907 64.2278 11.432C63.9665 11.964 63.5885 12.3747 63.0938 12.664C62.5991 12.9533 62.0298 13.098 61.3858 13.098ZM61.3858 12.16C62.0578 12.16 62.5711 11.9407 62.9258 11.502C63.2898 11.054 63.4718 10.4053 63.4718 9.556C63.4718 8.72533 63.2898 8.086 62.9258 7.638C62.5618 7.18067 62.0485 6.952 61.3858 6.952C60.7231 6.952 60.2098 7.18067 59.8458 7.638C59.4818 8.086 59.2998 8.72533 59.2998 9.556C59.2998 10.396 59.4771 11.04 59.8318 11.488C60.1958 11.936 60.7138 12.16 61.3858 12.16ZM68.6334 13.098C67.4854 13.098 66.5754 12.804 65.9034 12.216L66.2814 11.376C66.6454 11.6653 67.0141 11.8753 67.3874 12.006C67.7701 12.1273 68.1994 12.188 68.6754 12.188C69.1794 12.188 69.5621 12.104 69.8234 11.936C70.0941 11.7587 70.2294 11.5067 70.2294 11.18C70.2294 10.9093 70.1408 10.6947 69.9634 10.536C69.7861 10.3773 69.4921 10.2513 69.0814 10.158L67.9334 9.892C67.3548 9.76133 66.9114 9.53733 66.6034 9.22C66.2954 8.90267 66.1414 8.51067 66.1414 8.044C66.1414 7.43733 66.3794 6.94733 66.8554 6.574C67.3314 6.20067 67.9661 6.014 68.7594 6.014C69.2354 6.014 69.6881 6.09333 70.1174 6.252C70.5468 6.40133 70.9061 6.62067 71.1954 6.91L70.8174 7.736C70.1921 7.204 69.5061 6.938 68.7594 6.938C68.2834 6.938 67.9101 7.03133 67.6394 7.218C67.3781 7.39533 67.2474 7.64733 67.2474 7.974C67.2474 8.24467 67.3268 8.464 67.4854 8.632C67.6534 8.79067 67.9194 8.912 68.2834 8.996L69.4454 9.276C70.0801 9.42533 70.5514 9.654 70.8594 9.962C71.1674 10.2607 71.3214 10.6527 71.3214 11.138C71.3214 11.7353 71.0788 12.2113 70.5934 12.566C70.1174 12.9207 69.4641 13.098 68.6334 13.098Z" fill="#6E6E6E"/>
<path d="M333.432 221.112C332.499 221.112 331.687 220.911 330.996 220.51C330.305 220.099 329.773 219.516 329.4 218.76C329.036 217.995 328.854 217.094 328.854 216.058C328.854 215.022 329.036 214.126 329.4 213.37C329.773 212.614 330.305 212.035 330.996 211.634C331.687 211.223 332.499 211.018 333.432 211.018C334.113 211.018 334.739 211.125 335.308 211.34C335.877 211.545 336.372 211.853 336.792 212.264L336.358 213.146C335.882 212.745 335.415 212.455 334.958 212.278C334.501 212.101 333.997 212.012 333.446 212.012C332.363 212.012 331.523 212.367 330.926 213.076C330.338 213.776 330.044 214.77 330.044 216.058C330.044 217.355 330.338 218.359 330.926 219.068C331.523 219.768 332.363 220.118 333.446 220.118C333.997 220.118 334.501 220.029 334.958 219.852C335.415 219.675 335.882 219.385 336.358 218.984L336.792 219.866C336.372 220.277 335.877 220.589 335.308 220.804C334.739 221.009 334.113 221.112 333.432 221.112ZM341.16 214.014C342.028 214.014 342.672 214.238 343.092 214.686C343.521 215.125 343.736 215.797 343.736 216.702V221H342.63V219.838C342.453 220.239 342.182 220.552 341.818 220.776C341.454 220.991 341.034 221.098 340.558 221.098C340.119 221.098 339.713 221.009 339.34 220.832C338.976 220.655 338.687 220.407 338.472 220.09C338.257 219.773 338.15 219.423 338.15 219.04C338.15 218.527 338.281 218.13 338.542 217.85C338.803 217.561 339.233 217.355 339.83 217.234C340.427 217.103 341.258 217.038 342.322 217.038H342.63V216.576C342.63 216.007 342.513 215.596 342.28 215.344C342.047 215.083 341.669 214.952 341.146 214.952C340.362 214.952 339.583 215.195 338.808 215.68L338.43 214.854C338.785 214.602 339.209 214.401 339.704 214.252C340.208 214.093 340.693 214.014 341.16 214.014ZM340.712 220.202C341.272 220.202 341.729 220.015 342.084 219.642C342.448 219.259 342.63 218.769 342.63 218.172V217.766H342.378C341.557 217.766 340.931 217.803 340.502 217.878C340.073 217.943 339.765 218.06 339.578 218.228C339.401 218.387 339.312 218.625 339.312 218.942C339.312 219.306 339.443 219.609 339.704 219.852C339.975 220.085 340.311 220.202 340.712 220.202ZM349.242 214.014C350.875 214.014 351.692 214.915 351.692 216.716V221H350.558V216.786C350.558 216.151 350.432 215.689 350.18 215.4C349.937 215.111 349.545 214.966 349.004 214.966C348.378 214.966 347.879 215.157 347.506 215.54C347.132 215.923 346.946 216.441 346.946 217.094V221H345.812V214.182H346.932V215.302C347.156 214.882 347.468 214.565 347.87 214.35C348.271 214.126 348.728 214.014 349.242 214.014ZM356.653 221.098C355.981 221.098 355.397 220.953 354.903 220.664C354.408 220.375 354.025 219.969 353.755 219.446C353.493 218.914 353.363 218.293 353.363 217.584C353.363 216.875 353.498 216.254 353.769 215.722C354.049 215.181 354.436 214.761 354.931 214.462C355.435 214.163 356.023 214.014 356.695 214.014C357.152 214.014 357.6 214.098 358.039 214.266C358.477 214.425 358.832 214.639 359.103 214.91L358.725 215.75C358.081 215.227 357.427 214.966 356.765 214.966C356.065 214.966 355.519 215.195 355.127 215.652C354.735 216.109 354.539 216.753 354.539 217.584C354.539 218.405 354.735 219.04 355.127 219.488C355.519 219.936 356.065 220.16 356.765 220.16C357.427 220.16 358.081 219.899 358.725 219.376L359.103 220.216C358.813 220.487 358.449 220.701 358.011 220.86C357.572 221.019 357.119 221.098 356.653 221.098ZM366.18 217.766H361.196C361.233 218.559 361.448 219.161 361.84 219.572C362.232 219.973 362.787 220.174 363.506 220.174C364.299 220.174 365.027 219.903 365.69 219.362L366.068 220.188C365.769 220.468 365.387 220.692 364.92 220.86C364.453 221.019 363.977 221.098 363.492 221.098C362.428 221.098 361.588 220.785 360.972 220.16C360.365 219.535 360.062 218.671 360.062 217.57C360.062 216.87 360.197 216.254 360.468 215.722C360.739 215.181 361.117 214.761 361.602 214.462C362.097 214.163 362.657 214.014 363.282 214.014C364.187 214.014 364.897 214.313 365.41 214.91C365.923 215.498 366.18 216.31 366.18 217.346V217.766ZM363.296 214.896C362.699 214.896 362.218 215.083 361.854 215.456C361.499 215.829 361.289 216.357 361.224 217.038H365.186C365.167 216.347 364.995 215.82 364.668 215.456C364.341 215.083 363.884 214.896 363.296 214.896ZM367.851 221V211.13H368.985V221H367.851ZM373.877 214.014C374.745 214.014 375.389 214.238 375.809 214.686C376.238 215.125 376.453 215.797 376.453 216.702V221H375.347V219.838C375.169 220.239 374.899 220.552 374.535 220.776C374.171 220.991 373.751 221.098 373.275 221.098C372.836 221.098 372.43 221.009 372.057 220.832C371.693 220.655 371.403 220.407 371.189 220.09C370.974 219.773 370.867 219.423 370.867 219.04C370.867 218.527 370.997 218.13 371.259 217.85C371.52 217.561 371.949 217.355 372.547 217.234C373.144 217.103 373.975 217.038 375.039 217.038H375.347V216.576C375.347 216.007 375.23 215.596 374.997 215.344C374.763 215.083 374.385 214.952 373.863 214.952C373.079 214.952 372.299 215.195 371.525 215.68L371.147 214.854C371.501 214.602 371.926 214.401 372.421 214.252C372.925 214.093 373.41 214.014 373.877 214.014ZM373.429 220.202C373.989 220.202 374.446 220.015 374.801 219.642C375.165 219.259 375.347 218.769 375.347 218.172V217.766H375.095C374.273 217.766 373.648 217.803 373.219 217.878C372.789 217.943 372.481 218.06 372.295 218.228C372.117 218.387 372.029 218.625 372.029 218.942C372.029 219.306 372.159 219.609 372.421 219.852C372.691 220.085 373.027 220.202 373.429 220.202ZM384.577 211.13V221H383.443V219.754C383.237 220.183 382.934 220.515 382.533 220.748C382.141 220.981 381.679 221.098 381.147 221.098C380.549 221.098 380.022 220.949 379.565 220.65C379.107 220.351 378.753 219.936 378.501 219.404C378.249 218.863 378.123 218.237 378.123 217.528C378.123 216.828 378.249 216.212 378.501 215.68C378.753 215.148 379.107 214.737 379.565 214.448C380.022 214.159 380.549 214.014 381.147 214.014C381.679 214.014 382.141 214.131 382.533 214.364C382.934 214.597 383.237 214.929 383.443 215.358V211.13H384.577ZM381.371 220.16C382.033 220.16 382.542 219.936 382.897 219.488C383.261 219.031 383.443 218.387 383.443 217.556C383.443 216.725 383.261 216.086 382.897 215.638C382.542 215.19 382.033 214.966 381.371 214.966C380.708 214.966 380.19 215.19 379.817 215.638C379.453 216.086 379.271 216.716 379.271 217.528C379.271 218.359 379.453 219.007 379.817 219.474C380.19 219.931 380.708 220.16 381.371 220.16ZM389.505 221.098C388.861 221.098 388.292 220.953 387.797 220.664C387.312 220.375 386.934 219.964 386.663 219.432C386.402 218.891 386.271 218.265 386.271 217.556C386.271 216.847 386.402 216.226 386.663 215.694C386.934 215.153 387.312 214.737 387.797 214.448C388.292 214.159 388.861 214.014 389.505 214.014C390.149 214.014 390.718 214.159 391.213 214.448C391.708 214.737 392.086 215.153 392.347 215.694C392.618 216.226 392.753 216.847 392.753 217.556C392.753 218.265 392.618 218.891 392.347 219.432C392.086 219.964 391.708 220.375 391.213 220.664C390.718 220.953 390.149 221.098 389.505 221.098ZM389.505 220.16C390.177 220.16 390.69 219.941 391.045 219.502C391.409 219.054 391.591 218.405 391.591 217.556C391.591 216.725 391.409 216.086 391.045 215.638C390.681 215.181 390.168 214.952 389.505 214.952C388.842 214.952 388.329 215.181 387.965 215.638C387.601 216.086 387.419 216.725 387.419 217.556C387.419 218.396 387.596 219.04 387.951 219.488C388.315 219.936 388.833 220.16 389.505 220.16ZM396.753 221.098C395.605 221.098 394.695 220.804 394.023 220.216L394.401 219.376C394.765 219.665 395.133 219.875 395.507 220.006C395.889 220.127 396.319 220.188 396.795 220.188C397.299 220.188 397.681 220.104 397.943 219.936C398.213 219.759 398.349 219.507 398.349 219.18C398.349 218.909 398.26 218.695 398.083 218.536C397.905 218.377 397.611 218.251 397.201 218.158L396.053 217.892C395.474 217.761 395.031 217.537 394.723 217.22C394.415 216.903 394.261 216.511 394.261 216.044C394.261 215.437 394.499 214.947 394.975 214.574C395.451 214.201 396.085 214.014 396.879 214.014C397.355 214.014 397.807 214.093 398.237 214.252C398.666 214.401 399.025 214.621 399.315 214.91L398.937 215.736C398.311 215.204 397.625 214.938 396.879 214.938C396.403 214.938 396.029 215.031 395.759 215.218C395.497 215.395 395.367 215.647 395.367 215.974C395.367 216.245 395.446 216.464 395.605 216.632C395.773 216.791 396.039 216.912 396.403 216.996L397.565 217.276C398.199 217.425 398.671 217.654 398.979 217.962C399.287 218.261 399.441 218.653 399.441 219.138C399.441 219.735 399.198 220.211 398.713 220.566C398.237 220.921 397.583 221.098 396.753 221.098Z" fill="#6E6E6E"/>
<path d="M10.8 229V219.13H17.044V220.082H11.934V223.512H16.764V224.464H11.934V228.048H17.044V229H10.8ZM26.3685 222.014C27.8805 222.014 28.6365 222.915 28.6365 224.716V229H27.5025V224.772C27.5025 224.147 27.3905 223.689 27.1665 223.4C26.9518 223.111 26.6018 222.966 26.1165 222.966C25.5471 222.966 25.0991 223.157 24.7725 223.54C24.4458 223.923 24.2825 224.445 24.2825 225.108V229H23.1485V224.772C23.1485 224.137 23.0365 223.68 22.8125 223.4C22.5885 223.111 22.2338 222.966 21.7485 222.966C21.1791 222.966 20.7311 223.157 20.4045 223.54C20.0778 223.923 19.9145 224.445 19.9145 225.108V229H18.7805V222.182H19.9005V223.26C20.1058 222.859 20.3905 222.551 20.7545 222.336C21.1185 222.121 21.5385 222.014 22.0145 222.014C23.0691 222.014 23.7645 222.462 24.1005 223.358C24.2965 222.938 24.5951 222.611 24.9965 222.378C25.3978 222.135 25.8551 222.014 26.3685 222.014ZM37.0837 222.014C37.9517 222.014 38.5957 222.238 39.0157 222.686C39.4451 223.125 39.6597 223.797 39.6597 224.702V229H38.5537V227.838C38.3764 228.239 38.1057 228.552 37.7417 228.776C37.3777 228.991 36.9577 229.098 36.4817 229.098C36.0431 229.098 35.6371 229.009 35.2637 228.832C34.8997 228.655 34.6104 228.407 34.3957 228.09C34.1811 227.773 34.0737 227.423 34.0737 227.04C34.0737 226.527 34.2044 226.13 34.4657 225.85C34.7271 225.561 35.1564 225.355 35.7537 225.234C36.3511 225.103 37.1817 225.038 38.2457 225.038H38.5537V224.576C38.5537 224.007 38.4371 223.596 38.2037 223.344C37.9704 223.083 37.5924 222.952 37.0697 222.952C36.2857 222.952 35.5064 223.195 34.7317 223.68L34.3537 222.854C34.7084 222.602 35.1331 222.401 35.6277 222.252C36.1317 222.093 36.6171 222.014 37.0837 222.014ZM36.6357 228.202C37.1957 228.202 37.6531 228.015 38.0077 227.642C38.3717 227.259 38.5537 226.769 38.5537 226.172V225.766H38.3017C37.4804 225.766 36.8551 225.803 36.4257 225.878C35.9964 225.943 35.6884 226.06 35.5017 226.228C35.3244 226.387 35.2357 226.625 35.2357 226.942C35.2357 227.306 35.3664 227.609 35.6277 227.852C35.8984 228.085 36.2344 228.202 36.6357 228.202ZM45.1655 222.014C46.7989 222.014 47.6155 222.915 47.6155 224.716V229H46.4815V224.786C46.4815 224.151 46.3555 223.689 46.1035 223.4C45.8609 223.111 45.4689 222.966 44.9275 222.966C44.3022 222.966 43.8029 223.157 43.4295 223.54C43.0562 223.923 42.8695 224.441 42.8695 225.094V229H41.7355V222.182H42.8555V223.302C43.0795 222.882 43.3922 222.565 43.7935 222.35C44.1949 222.126 44.6522 222.014 45.1655 222.014ZM55.7406 219.13V229H54.6066V227.754C54.4012 228.183 54.0979 228.515 53.6966 228.748C53.3046 228.981 52.8426 229.098 52.3106 229.098C51.7132 229.098 51.1859 228.949 50.7286 228.65C50.2712 228.351 49.9166 227.936 49.6646 227.404C49.4126 226.863 49.2866 226.237 49.2866 225.528C49.2866 224.828 49.4126 224.212 49.6646 223.68C49.9166 223.148 50.2712 222.737 50.7286 222.448C51.1859 222.159 51.7132 222.014 52.3106 222.014C52.8426 222.014 53.3046 222.131 53.6966 222.364C54.0979 222.597 54.4012 222.929 54.6066 223.358V219.13H55.7406ZM52.5346 228.16C53.1972 228.16 53.7059 227.936 54.0606 227.488C54.4246 227.031 54.6066 226.387 54.6066 225.556C54.6066 224.725 54.4246 224.086 54.0606 223.638C53.7059 223.19 53.1972 222.966 52.5346 222.966C51.8719 222.966 51.3539 223.19 50.9806 223.638C50.6166 224.086 50.4346 224.716 50.4346 225.528C50.4346 226.359 50.6166 227.007 50.9806 227.474C51.3539 227.931 51.8719 228.16 52.5346 228.16ZM60.613 222.014C61.481 222.014 62.125 222.238 62.545 222.686C62.9743 223.125 63.189 223.797 63.189 224.702V229H62.083V227.838C61.9057 228.239 61.635 228.552 61.271 228.776C60.907 228.991 60.487 229.098 60.011 229.098C59.5723 229.098 59.1663 229.009 58.793 228.832C58.429 228.655 58.1397 228.407 57.925 228.09C57.7103 227.773 57.603 227.423 57.603 227.04C57.603 226.527 57.7337 226.13 57.995 225.85C58.2563 225.561 58.6857 225.355 59.283 225.234C59.8803 225.103 60.711 225.038 61.775 225.038H62.083V224.576C62.083 224.007 61.9663 223.596 61.733 223.344C61.4997 223.083 61.1217 222.952 60.599 222.952C59.815 222.952 59.0357 223.195 58.261 223.68L57.883 222.854C58.2377 222.602 58.6623 222.401 59.157 222.252C59.661 222.093 60.1463 222.014 60.613 222.014ZM60.165 228.202C60.725 228.202 61.1823 228.015 61.537 227.642C61.901 227.259 62.083 226.769 62.083 226.172V225.766H61.831C61.0097 225.766 60.3843 225.803 59.955 225.878C59.5257 225.943 59.2177 226.06 59.031 226.228C58.8537 226.387 58.765 226.625 58.765 226.942C58.765 227.306 58.8957 227.609 59.157 227.852C59.4277 228.085 59.7637 228.202 60.165 228.202ZM72.8528 222.014C74.3648 222.014 75.1208 222.915 75.1208 224.716V229H73.9868V224.772C73.9868 224.147 73.8748 223.689 73.6508 223.4C73.4362 223.111 73.0862 222.966 72.6008 222.966C72.0315 222.966 71.5835 223.157 71.2568 223.54C70.9302 223.923 70.7668 224.445 70.7668 225.108V229H69.6328V224.772C69.6328 224.137 69.5208 223.68 69.2968 223.4C69.0728 223.111 68.7182 222.966 68.2328 222.966C67.6635 222.966 67.2155 223.157 66.8888 223.54C66.5622 223.923 66.3988 224.445 66.3988 225.108V229H65.2648V222.182H66.3848V223.26C66.5902 222.859 66.8748 222.551 67.2388 222.336C67.6028 222.121 68.0228 222.014 68.4988 222.014C69.5535 222.014 70.2488 222.462 70.5848 223.358C70.7808 222.938 71.0795 222.611 71.4808 222.378C71.8822 222.135 72.3395 222.014 72.8528 222.014ZM82.8987 225.766H77.9147C77.9521 226.559 78.1667 227.161 78.5587 227.572C78.9507 227.973 79.5061 228.174 80.2247 228.174C81.0181 228.174 81.7461 227.903 82.4087 227.362L82.7867 228.188C82.4881 228.468 82.1054 228.692 81.6387 228.86C81.1721 229.019 80.6961 229.098 80.2107 229.098C79.1467 229.098 78.3067 228.785 77.6907 228.16C77.0841 227.535 76.7807 226.671 76.7807 225.57C76.7807 224.87 76.9161 224.254 77.1867 223.722C77.4574 223.181 77.8354 222.761 78.3207 222.462C78.8154 222.163 79.3754 222.014 80.0007 222.014C80.9061 222.014 81.6154 222.313 82.1287 222.91C82.6421 223.498 82.8987 224.31 82.8987 225.346V225.766ZM80.0147 222.896C79.4174 222.896 78.9367 223.083 78.5727 223.456C78.2181 223.829 78.0081 224.357 77.9427 225.038H81.9047C81.8861 224.347 81.7134 223.82 81.3867 223.456C81.0601 223.083 80.6027 222.896 80.0147 222.896ZM87.9995 222.014C89.6329 222.014 90.4495 222.915 90.4495 224.716V229H89.3155V224.786C89.3155 224.151 89.1895 223.689 88.9375 223.4C88.6949 223.111 88.3029 222.966 87.7615 222.966C87.1362 222.966 86.6369 223.157 86.2635 223.54C85.8902 223.923 85.7035 224.441 85.7035 225.094V229H84.5695V222.182H85.6895V223.302C85.9135 222.882 86.2262 222.565 86.6275 222.35C87.0289 222.126 87.4862 222.014 87.9995 222.014ZM95.5226 228.188C95.7279 228.188 95.9332 228.174 96.1386 228.146L96.0826 229.042C95.8679 229.079 95.6346 229.098 95.3826 229.098C94.5612 229.098 93.9406 228.883 93.5206 228.454C93.1099 228.025 92.9046 227.427 92.9046 226.662V223.078H91.5746V222.182H92.9046V220.11H94.0386V222.182H95.9706V223.078H94.0386V226.578C94.0386 227.651 94.5332 228.188 95.5226 228.188ZM100.112 229.098C99.4684 229.098 98.899 228.953 98.4044 228.664C97.919 228.375 97.541 227.964 97.2704 227.432C97.009 226.891 96.8784 226.265 96.8784 225.556C96.8784 224.847 97.009 224.226 97.2704 223.694C97.541 223.153 97.919 222.737 98.4044 222.448C98.899 222.159 99.4684 222.014 100.112 222.014C100.756 222.014 101.326 222.159 101.82 222.448C102.315 222.737 102.693 223.153 102.954 223.694C103.225 224.226 103.36 224.847 103.36 225.556C103.36 226.265 103.225 226.891 102.954 227.432C102.693 227.964 102.315 228.375 101.82 228.664C101.326 228.953 100.756 229.098 100.112 229.098ZM100.112 228.16C100.784 228.16 101.298 227.941 101.652 227.502C102.016 227.054 102.198 226.405 102.198 225.556C102.198 224.725 102.016 224.086 101.652 223.638C101.288 223.181 100.775 222.952 100.112 222.952C99.4497 222.952 98.9364 223.181 98.5724 223.638C98.2084 224.086 98.0264 224.725 98.0264 225.556C98.0264 226.396 98.2037 227.04 98.5584 227.488C98.9224 227.936 99.4404 228.16 100.112 228.16Z" fill="#6E6E6E"/>
<path d="M292 106C292 159.019 249.019 202 196 202C142.981 202 100 159.019 100 106C100 52.9807 142.981 10 196 10C249.019 10 292 52.9807 292 106ZM130.72 106C130.72 142.053 159.947 171.28 196 171.28C232.053 171.28 261.28 142.053 261.28 106C261.28 69.9469 232.053 40.72 196 40.72C159.947 40.72 130.72 69.9469 130.72 106Z" fill="#008A00"/>
<path d="M230.408 195.622C211.482 202.888 190.741 203.976 171.159 198.73C151.576 193.484 134.157 182.173 121.397 166.419L145.27 147.085C153.946 157.798 165.792 165.489 179.108 169.057C192.424 172.624 206.528 171.884 219.398 166.943L230.408 195.622Z" fill="#F4B42D"/>
<path d="M276.531 158.257C265.495 175.264 249.359 188.34 230.435 195.612L219.416 166.936C232.284 161.991 243.257 153.099 250.761 141.535L276.531 158.257Z" fill="#EB0000"/>
<path d="M220.847 13.2711C235.48 17.1922 248.978 24.5209 260.237 34.6581C271.495 44.7953 280.195 57.4531 285.624 71.5967C291.053 85.7402 293.058 100.968 291.474 116.035C289.891 131.102 284.764 145.58 276.512 158.285L250.748 141.554C256.359 132.914 259.846 123.069 260.922 112.824C261.999 102.578 260.636 92.2234 256.944 82.6057C253.252 72.9881 247.337 64.3808 239.681 57.4875C232.025 50.5942 222.847 45.6107 212.896 42.9444L220.847 13.2711Z" fill="#5E5E5E"/>
<path d="M264.5 48.5L304 9H328" stroke="#5E5E5E"/>
<path d="M255 176.5L294.5 216H318.5" stroke="#EB0000"/>
<path d="M175.5 184L136 223.5H112" stroke="#F4B42D"/>
<path d="M143.5 47.5L104 8H80" stroke="#008A00"/>
</svg>
