<svg width="80" height="80" viewBox="0 0 80 80" fill="currentColor" xmlns="http://www.w3.org/2000/svg">
<path d="M23.1462 64.096C22.3462 64.096 21.6502 63.924 21.0582 63.58C20.4662 63.228 20.0102 62.728 19.6902 62.08C19.3782 61.424 19.2222 60.652 19.2222 59.764C19.2222 58.876 19.3782 58.108 19.6902 57.46C20.0102 56.812 20.4662 56.316 21.0582 55.972C21.6502 55.62 22.3462 55.444 23.1462 55.444C23.7302 55.444 24.2662 55.536 24.7542 55.72C25.2422 55.896 25.6662 56.16 26.0262 56.512L25.6542 57.268C25.2462 56.924 24.8462 56.676 24.4542 56.524C24.0622 56.372 23.6302 56.296 23.1582 56.296C22.2302 56.296 21.5102 56.6 20.9982 57.208C20.4942 57.808 20.2422 58.66 20.2422 59.764C20.2422 60.876 20.4942 61.736 20.9982 62.344C21.5102 62.944 22.2302 63.244 23.1582 63.244C23.6302 63.244 24.0622 63.168 24.4542 63.016C24.8462 62.864 25.2462 62.616 25.6542 62.272L26.0262 63.028C25.6662 63.38 25.2422 63.648 24.7542 63.832C24.2662 64.008 23.7302 64.096 23.1462 64.096ZM27.5113 64V55.54H28.4833V64H27.5113ZM30.3004 64V58.156H31.2724V64H30.3004ZM30.2044 55.624H31.3804V56.716H30.2044V55.624ZM37.9855 61.228H33.7135C33.7455 61.908 33.9295 62.424 34.2655 62.776C34.6015 63.12 35.0775 63.292 35.6935 63.292C36.3735 63.292 36.9975 63.06 37.5655 62.596L37.8895 63.304C37.6335 63.544 37.3055 63.736 36.9055 63.88C36.5055 64.016 36.0975 64.084 35.6815 64.084C34.7695 64.084 34.0495 63.816 33.5215 63.28C33.0015 62.744 32.7415 62.004 32.7415 61.06C32.7415 60.46 32.8575 59.932 33.0895 59.476C33.3215 59.012 33.6455 58.652 34.0615 58.396C34.4855 58.14 34.9655 58.012 35.5015 58.012C36.2775 58.012 36.8855 58.268 37.3255 58.78C37.7655 59.284 37.9855 59.98 37.9855 60.868V61.228ZM35.5135 58.768C35.0015 58.768 34.5895 58.928 34.2775 59.248C33.9735 59.568 33.7935 60.02 33.7375 60.604H37.1335C37.1175 60.012 36.9695 59.56 36.6895 59.248C36.4095 58.928 36.0175 58.768 35.5135 58.768ZM42.3576 58.012C43.7576 58.012 44.4576 58.784 44.4576 60.328V64H43.4856V60.388C43.4856 59.844 43.3776 59.448 43.1616 59.2C42.9536 58.952 42.6176 58.828 42.1536 58.828C41.6176 58.828 41.1896 58.992 40.8696 59.32C40.5496 59.648 40.3896 60.092 40.3896 60.652V64H39.4176V58.156H40.3776V59.116C40.5696 58.756 40.8376 58.484 41.1816 58.3C41.5256 58.108 41.9176 58.012 42.3576 58.012ZM48.8059 63.304C48.9819 63.304 49.1579 63.292 49.3339 63.268L49.2859 64.036C49.1019 64.068 48.9019 64.084 48.6859 64.084C47.9819 64.084 47.4499 63.9 47.0899 63.532C46.7379 63.164 46.5619 62.652 46.5619 61.996V58.924H45.4219V58.156H46.5619V56.38H47.5339V58.156H49.1899V58.924H47.5339V61.924C47.5339 62.844 47.9579 63.304 48.8059 63.304ZM55.212 61.228H50.94C50.972 61.908 51.156 62.424 51.492 62.776C51.828 63.12 52.304 63.292 52.92 63.292C53.6 63.292 54.224 63.06 54.792 62.596L55.116 63.304C54.86 63.544 54.532 63.736 54.132 63.88C53.732 64.016 53.324 64.084 52.908 64.084C51.996 64.084 51.276 63.816 50.748 63.28C50.228 62.744 49.968 62.004 49.968 61.06C49.968 60.46 50.084 59.932 50.316 59.476C50.548 59.012 50.872 58.652 51.288 58.396C51.712 58.14 52.192 58.012 52.728 58.012C53.504 58.012 54.112 58.268 54.552 58.78C54.992 59.284 55.212 59.98 55.212 60.868V61.228ZM52.74 58.768C52.228 58.768 51.816 58.928 51.504 59.248C51.2 59.568 51.02 60.02 50.964 60.604H54.36C54.344 60.012 54.196 59.56 53.916 59.248C53.636 58.928 53.244 58.768 52.74 58.768ZM58.6241 64.084C57.6401 64.084 56.8601 63.832 56.2841 63.328L56.6081 62.608C56.9201 62.856 57.2361 63.036 57.5561 63.148C57.8841 63.252 58.2521 63.304 58.6601 63.304C59.0921 63.304 59.4201 63.232 59.6441 63.088C59.8761 62.936 59.9921 62.72 59.9921 62.44C59.9921 62.208 59.9161 62.024 59.7641 61.888C59.6121 61.752 59.3601 61.644 59.0081 61.564L58.0241 61.336C57.5281 61.224 57.1481 61.032 56.8841 60.76C56.6201 60.488 56.4881 60.152 56.4881 59.752C56.4881 59.232 56.6921 58.812 57.1001 58.492C57.5081 58.172 58.0521 58.012 58.7321 58.012C59.1401 58.012 59.5281 58.08 59.8961 58.216C60.2641 58.344 60.5721 58.532 60.8201 58.78L60.4961 59.488C59.9601 59.032 59.3721 58.804 58.7321 58.804C58.3241 58.804 58.0041 58.884 57.7721 59.044C57.5481 59.196 57.4361 59.412 57.4361 59.692C57.4361 59.924 57.5041 60.112 57.6401 60.256C57.7841 60.392 58.0121 60.496 58.3241 60.568L59.3201 60.808C59.8641 60.936 60.2681 61.132 60.5321 61.396C60.7961 61.652 60.9281 61.988 60.9281 62.404C60.9281 62.916 60.7201 63.324 60.3041 63.628C59.8961 63.932 59.3361 64.084 58.6241 64.084Z" />
<path fill-rule="evenodd" clip-rule="evenodd" d="M29.3337 12H50.667V14.6667H29.3337V12ZM29.3337 17.3333H50.667C52.1337 17.3333 53.3337 18.5333 53.3337 20V36C53.3337 37.4667 52.1337 38.6667 50.667 38.6667H29.3337C27.867 38.6667 26.667 37.4667 26.667 36V20C26.667 18.5333 27.867 17.3333 29.3337 17.3333ZM29.3337 36H50.667V20H29.3337V36ZM29.3337 41.3333V44H50.667V41.3333H29.3337ZM40.0003 28C41.8403 28 43.3337 26.5067 43.3337 24.6667C43.3337 22.8267 41.8403 21.3333 40.0003 21.3333C38.1603 21.3333 36.667 22.8267 36.667 24.6667C36.667 26.5067 38.1603 28 40.0003 28ZM41.3337 24.6667C41.3337 23.9333 40.7337 23.3333 40.0003 23.3333C39.267 23.3333 38.667 23.9333 38.667 24.6667C38.667 25.4 39.267 26 40.0003 26C40.7337 26 41.3337 25.4 41.3337 24.6667ZM46.667 33.32C46.667 30.5333 42.2537 29.3333 40.0003 29.3333C37.747 29.3333 33.3337 30.5333 33.3337 33.32V34.6667H46.667V33.32ZM40.0003 31.3333C38.4537 31.3333 36.5603 31.9733 35.747 32.6667H44.267C43.4537 31.9733 41.5603 31.3333 40.0003 31.3333Z" />
</svg>
