<svg width="80" height="80" viewBox="0 0 80 80" fill="currentColor" xmlns="http://www.w3.org/2000/svg">
<path d="M27.1104 68V59.54H28.0944V68H27.1104ZM32.9767 62.012C34.3767 62.012 35.0767 62.784 35.0767 64.328V68H34.1047V64.388C34.1047 63.844 33.9967 63.448 33.7807 63.2C33.5727 62.952 33.2367 62.828 32.7727 62.828C32.2367 62.828 31.8087 62.992 31.4887 63.32C31.1687 63.648 31.0087 64.092 31.0087 64.652V68H30.0367V62.156H30.9967V63.116C31.1887 62.756 31.4567 62.484 31.8007 62.3C32.1447 62.108 32.5367 62.012 32.9767 62.012ZM36.857 68V62.156H37.829V68H36.857ZM37.685 61.388H37.013L38.201 58.964H39.317L37.685 61.388ZM42.1181 68.084C41.5421 68.084 41.0421 67.96 40.6181 67.712C40.1941 67.464 39.8661 67.116 39.6341 66.668C39.4101 66.212 39.2981 65.68 39.2981 65.072C39.2981 64.464 39.4141 63.932 39.6461 63.476C39.8861 63.012 40.2181 62.652 40.6421 62.396C41.0741 62.14 41.5781 62.012 42.1541 62.012C42.5461 62.012 42.9301 62.084 43.3061 62.228C43.6821 62.364 43.9861 62.548 44.2181 62.78L43.8941 63.5C43.3421 63.052 42.7821 62.828 42.2141 62.828C41.6141 62.828 41.1461 63.024 40.8101 63.416C40.4741 63.808 40.3061 64.36 40.3061 65.072C40.3061 65.776 40.4741 66.32 40.8101 66.704C41.1461 67.088 41.6141 67.28 42.2141 67.28C42.7821 67.28 43.3421 67.056 43.8941 66.608L44.2181 67.328C43.9701 67.56 43.6581 67.744 43.2821 67.88C42.9061 68.016 42.5181 68.084 42.1181 68.084ZM45.3883 68V62.156H46.3603V68H45.3883ZM45.2923 59.624H46.4683V60.716H45.2923V59.624ZM50.6013 68.084C50.0493 68.084 49.5613 67.96 49.1373 67.712C48.7213 67.464 48.3973 67.112 48.1653 66.656C47.9413 66.192 47.8293 65.656 47.8293 65.048C47.8293 64.44 47.9413 63.908 48.1653 63.452C48.3973 62.988 48.7213 62.632 49.1373 62.384C49.5613 62.136 50.0493 62.012 50.6013 62.012C51.1533 62.012 51.6413 62.136 52.0653 62.384C52.4893 62.632 52.8133 62.988 53.0373 63.452C53.2693 63.908 53.3853 64.44 53.3853 65.048C53.3853 65.656 53.2693 66.192 53.0373 66.656C52.8133 67.112 52.4893 67.464 52.0653 67.712C51.6413 67.96 51.1533 68.084 50.6013 68.084ZM50.6013 67.28C51.1773 67.28 51.6173 67.092 51.9213 66.716C52.2333 66.332 52.3893 65.776 52.3893 65.048C52.3893 64.336 52.2333 63.788 51.9213 63.404C51.6093 63.012 51.1693 62.816 50.6013 62.816C50.0333 62.816 49.5933 63.012 49.2813 63.404C48.9693 63.788 48.8133 64.336 48.8133 65.048C48.8133 65.768 48.9653 66.32 49.2693 66.704C49.5813 67.088 50.0253 67.28 50.6013 67.28Z"/>
<path fill-rule="evenodd" clip-rule="evenodd" d="M23.333 28.8334L39.9997 13.8334L56.6663 28.8334H51.6663V42.1667H41.6663V32.1667H38.333V42.1667H28.333V28.8334H23.333ZM48.333 25.8167L39.9997 18.3167L31.6663 25.8167V38.8334H34.9997V28.8334H44.9997V38.8334H48.333V25.8167Z" />
</svg>
