<svg width="112" height="40" viewBox="0 0 112 40" fill="none" xmlns="http://www.w3.org/2000/svg">
<path d="M43.36 28.2153C41.712 28.2153 40.28 27.8633 39.064 27.1593C37.864 26.4553 36.936 25.4473 36.28 24.1353C35.624 22.8233 35.296 21.2873 35.296 19.5273C35.296 17.7673 35.616 16.2393 36.256 14.9433C36.912 13.6313 37.848 12.6233 39.064 11.9193C40.28 11.2153 41.712 10.8633 43.36 10.8633C45.008 10.8633 46.432 11.2153 47.632 11.9193C48.848 12.6233 49.776 13.6313 50.416 14.9433C51.072 16.2393 51.4 17.7673 51.4 19.5273C51.4 21.2873 51.072 22.8233 50.416 24.1353C49.76 25.4473 48.824 26.4553 47.608 27.1593C46.408 27.8633 44.992 28.2153 43.36 28.2153ZM43.36 25.7433C44.912 25.7433 46.12 25.2073 46.984 24.1353C47.864 23.0633 48.304 21.5273 48.304 19.5273C48.304 17.5273 47.864 15.9993 46.984 14.9433C46.12 13.8713 44.912 13.3353 43.36 13.3353C41.792 13.3353 40.568 13.8713 39.688 14.9433C38.824 15.9993 38.392 17.5273 38.392 19.5273C38.392 21.5273 38.824 23.0633 39.688 24.1353C40.568 25.2073 41.792 25.7433 43.36 25.7433ZM61.7031 18.4713L59.9511 18.6393C57.9671 18.8473 56.9751 19.8553 56.9751 21.6633V27.9993H53.9751V16.2633H56.8311V18.3273C57.4391 16.9193 58.6951 16.1513 60.5991 16.0233L61.5111 15.9513L61.7031 18.4713ZM62.8746 27.9993V16.2633H65.8746V27.9993H62.8746ZM62.7066 10.8153H66.0186V13.7673H62.7066V10.8153ZM72.9284 27.9993V13.6233H67.4084V11.0793H81.5444V13.6233H76.0244V27.9993H72.9284ZM86.2761 15.9753C87.9241 15.9753 89.1481 16.3753 89.9481 17.1753C90.7481 17.9753 91.1481 19.2073 91.1481 20.8713V27.9993H88.2921V26.1993C88.0201 26.8233 87.5881 27.3113 86.9961 27.6633C86.4201 28.0153 85.7481 28.1913 84.9801 28.1913C84.1961 28.1913 83.4841 28.0313 82.8441 27.7113C82.2041 27.3913 81.7001 26.9513 81.3321 26.3913C80.9641 25.8313 80.7801 25.2073 80.7801 24.5193C80.7801 23.6553 80.9961 22.9753 81.4281 22.4793C81.8761 21.9833 82.5961 21.6233 83.5881 21.3993C84.5801 21.1753 85.9481 21.0633 87.6921 21.0633H88.2921V20.5113C88.2921 19.7113 88.1161 19.1353 87.7641 18.7833C87.4281 18.4313 86.8601 18.2553 86.0601 18.2553C85.4361 18.2553 84.7801 18.3673 84.0921 18.5913C83.4201 18.7993 82.7561 19.0953 82.1001 19.4793L81.2601 17.4153C81.9161 16.9993 82.7081 16.6553 83.6361 16.3833C84.5641 16.1113 85.4441 15.9753 86.2761 15.9753ZM85.5801 26.0313C86.3801 26.0313 87.0281 25.7673 87.5241 25.2393C88.0361 24.6953 88.2921 23.9993 88.2921 23.1513V22.6473H87.8601C86.7881 22.6473 85.9561 22.6953 85.3641 22.7913C84.7721 22.8873 84.3481 23.0553 84.0921 23.2953C83.8361 23.5353 83.7081 23.8633 83.7081 24.2793C83.7081 24.7913 83.8841 25.2153 84.2361 25.5513C84.5881 25.8713 85.0361 26.0313 85.5801 26.0313ZM93.9091 27.9993V11.0793H96.9091V27.9993H93.9091ZM111.475 27.9993H107.755L102.715 22.6473V27.9993H99.7148V11.0793H102.715V21.3993L107.443 16.2873H111.091L105.811 21.9033L111.475 27.9993Z" fill="#2B2B2B"/>
<path fill-rule="evenodd" clip-rule="evenodd" d="M17.1429 10.5463H3.21429C2.625 10.5463 2.14286 10.9717 2.14286 11.4916V24.7269L6.42857 20.9454H17.1429C17.7321 20.9454 18.2143 20.52 18.2143 20V11.4916C18.2143 10.9717 17.7321 10.5463 17.1429 10.5463ZM16.0714 12.437V19.0547H5.53928L4.28571 20.1608V12.437H16.0714ZM20.3571 14.3278H22.5C23.0893 14.3278 23.5714 14.7532 23.5714 15.2732V29.4538L19.2857 25.6723H7.5C6.91071 25.6723 6.42857 25.2469 6.42857 24.7269V22.8362H20.3571V14.3278Z" fill="#FD5B26"/>
</svg>
