<svg width="80" height="80" viewBox="0 0 80 80" fill="currentColor" xmlns="http://www.w3.org/2000/svg">
<path d="M33.3375 68.096C32.0175 68.096 30.9615 67.74 30.1695 67.028L30.5535 66.272C30.9695 66.624 31.3935 66.876 31.8255 67.028C32.2655 67.18 32.7735 67.256 33.3495 67.256C34.0295 67.256 34.5535 67.124 34.9215 66.86C35.2895 66.596 35.4735 66.224 35.4735 65.744C35.4735 65.464 35.3855 65.236 35.2095 65.06C35.0335 64.884 34.8015 64.744 34.5135 64.64C34.2255 64.536 33.8375 64.428 33.3495 64.316C32.6935 64.164 32.1535 64.004 31.7295 63.836C31.3135 63.668 30.9735 63.428 30.7095 63.116C30.4535 62.804 30.3255 62.396 30.3255 61.892C30.3255 61.412 30.4495 60.988 30.6975 60.62C30.9535 60.244 31.3135 59.956 31.7775 59.756C32.2495 59.548 32.7935 59.444 33.4095 59.444C33.9935 59.444 34.5375 59.536 35.0415 59.72C35.5535 59.904 35.9855 60.168 36.3375 60.512L35.9655 61.268C35.5655 60.924 35.1575 60.676 34.7415 60.524C34.3335 60.364 33.8895 60.284 33.4095 60.284C32.7535 60.284 32.2375 60.424 31.8615 60.704C31.4935 60.976 31.3095 61.36 31.3095 61.856C31.3095 62.28 31.4735 62.6 31.8015 62.816C32.1295 63.032 32.6255 63.216 33.2895 63.368C34.0175 63.544 34.5895 63.708 35.0055 63.86C35.4215 64.004 35.7655 64.224 36.0375 64.52C36.3175 64.816 36.4575 65.212 36.4575 65.708C36.4575 66.188 36.3295 66.608 36.0735 66.968C35.8255 67.328 35.4655 67.608 34.9935 67.808C34.5215 68 33.9695 68.096 33.3375 68.096ZM40.2877 62.012C41.0317 62.012 41.5837 62.204 41.9437 62.588C42.3117 62.964 42.4957 63.54 42.4957 64.316V68H41.5477V67.004C41.3957 67.348 41.1637 67.616 40.8517 67.808C40.5397 67.992 40.1797 68.084 39.7717 68.084C39.3957 68.084 39.0477 68.008 38.7277 67.856C38.4157 67.704 38.1677 67.492 37.9837 67.22C37.7997 66.948 37.7077 66.648 37.7077 66.32C37.7077 65.88 37.8197 65.54 38.0437 65.3C38.2677 65.052 38.6357 64.876 39.1477 64.772C39.6597 64.66 40.3717 64.604 41.2837 64.604H41.5477V64.208C41.5477 63.72 41.4477 63.368 41.2477 63.152C41.0477 62.928 40.7237 62.816 40.2757 62.816C39.6037 62.816 38.9357 63.024 38.2717 63.44L37.9477 62.732C38.2517 62.516 38.6157 62.344 39.0397 62.216C39.4717 62.08 39.8877 62.012 40.2877 62.012ZM39.9037 67.316C40.3837 67.316 40.7757 67.156 41.0797 66.836C41.3917 66.508 41.5477 66.088 41.5477 65.576V65.228H41.3317C40.6277 65.228 40.0917 65.26 39.7237 65.324C39.3557 65.38 39.0917 65.48 38.9317 65.624C38.7797 65.76 38.7037 65.964 38.7037 66.236C38.7037 66.548 38.8157 66.808 39.0397 67.016C39.2717 67.216 39.5597 67.316 39.9037 67.316ZM44.275 68V62.156H45.247V68H44.275ZM44.179 59.624H45.355V60.716H44.179V59.624ZM50.3761 62.852L49.7401 62.912C49.1401 62.968 48.7041 63.156 48.4321 63.476C48.1681 63.796 48.0361 64.192 48.0361 64.664V68H47.0641V62.156H48.0121V63.176C48.3401 62.496 48.9841 62.116 49.9441 62.036L50.2921 62.012L50.3761 62.852Z" />
<path fill-rule="evenodd" clip-rule="evenodd" d="M28.3333 13H51.6667C53.5 13 55 14.5 55 16.3333V39.6667C55 41.5 53.5 43 51.6667 43H28.3333C26.4833 43 25 41.5 25 39.6667V33H28.3333V39.6667H51.6667V16.3333H28.3333V23H25V16.3333C25 14.5 26.4833 13 28.3333 13ZM39.1667 36.3333L36.8167 33.9833L41.1167 29.6667H25V26.3333H41.1167L36.8167 22.0167L39.1667 19.6667L47.5 28L39.1667 36.3333Z" />
</svg>
