<svg width="80" height="80" viewBox="0 0 80 80" fill="currentColor" xmlns="http://www.w3.org/2000/svg">
<path d="M24.2168 64V56.38H21.2768V55.54H28.1648V56.38H25.2128V64H24.2168ZM29.2047 64V58.156H30.1767V64H29.2047ZM29.1087 55.624H30.2847V56.716H29.1087V55.624ZM34.4658 64.084C33.8898 64.084 33.3898 63.96 32.9658 63.712C32.5418 63.464 32.2138 63.116 31.9818 62.668C31.7578 62.212 31.6458 61.68 31.6458 61.072C31.6458 60.464 31.7618 59.932 31.9938 59.476C32.2338 59.012 32.5658 58.652 32.9898 58.396C33.4218 58.14 33.9258 58.012 34.5018 58.012C34.8938 58.012 35.2778 58.084 35.6538 58.228C36.0298 58.364 36.3338 58.548 36.5658 58.78L36.2418 59.5C35.6898 59.052 35.1298 58.828 34.5618 58.828C33.9618 58.828 33.4938 59.024 33.1578 59.416C32.8218 59.808 32.6538 60.36 32.6538 61.072C32.6538 61.776 32.8218 62.32 33.1578 62.704C33.4938 63.088 33.9618 63.28 34.5618 63.28C35.1298 63.28 35.6898 63.056 36.2418 62.608L36.5658 63.328C36.3178 63.56 36.0058 63.744 35.6298 63.88C35.2538 64.016 34.8658 64.084 34.4658 64.084ZM42.9439 64H41.6839L38.7079 61.204V64H37.7359V55.54H38.7079V60.808L41.4319 58.168H42.6679L39.7639 60.964L42.9439 64ZM48.5265 61.228H44.2545C44.2865 61.908 44.4705 62.424 44.8065 62.776C45.1425 63.12 45.6185 63.292 46.2345 63.292C46.9145 63.292 47.5385 63.06 48.1065 62.596L48.4305 63.304C48.1745 63.544 47.8465 63.736 47.4465 63.88C47.0465 64.016 46.6385 64.084 46.2225 64.084C45.3105 64.084 44.5905 63.816 44.0625 63.28C43.5425 62.744 43.2825 62.004 43.2825 61.06C43.2825 60.46 43.3985 59.932 43.6305 59.476C43.8625 59.012 44.1865 58.652 44.6025 58.396C45.0265 58.14 45.5065 58.012 46.0425 58.012C46.8185 58.012 47.4265 58.268 47.8665 58.78C48.3065 59.284 48.5265 59.98 48.5265 60.868V61.228ZM46.0545 58.768C45.5425 58.768 45.1305 58.928 44.8185 59.248C44.5145 59.568 44.3345 60.02 44.2785 60.604H47.6745C47.6585 60.012 47.5105 59.56 47.2305 59.248C46.9505 58.928 46.5585 58.768 46.0545 58.768ZM52.4914 63.304C52.6674 63.304 52.8434 63.292 53.0194 63.268L52.9714 64.036C52.7874 64.068 52.5874 64.084 52.3714 64.084C51.6674 64.084 51.1354 63.9 50.7754 63.532C50.4234 63.164 50.2474 62.652 50.2474 61.996V58.924H49.1074V58.156H50.2474V56.38H51.2194V58.156H52.8754V58.924H51.2194V61.924C51.2194 62.844 51.6434 63.304 52.4914 63.304ZM55.9816 64.084C54.9976 64.084 54.2176 63.832 53.6416 63.328L53.9656 62.608C54.2776 62.856 54.5936 63.036 54.9136 63.148C55.2416 63.252 55.6096 63.304 56.0176 63.304C56.4496 63.304 56.7776 63.232 57.0016 63.088C57.2336 62.936 57.3496 62.72 57.3496 62.44C57.3496 62.208 57.2736 62.024 57.1216 61.888C56.9696 61.752 56.7176 61.644 56.3656 61.564L55.3816 61.336C54.8856 61.224 54.5056 61.032 54.2416 60.76C53.9776 60.488 53.8456 60.152 53.8456 59.752C53.8456 59.232 54.0496 58.812 54.4576 58.492C54.8656 58.172 55.4096 58.012 56.0896 58.012C56.4976 58.012 56.8856 58.08 57.2536 58.216C57.6216 58.344 57.9296 58.532 58.1776 58.78L57.8536 59.488C57.3176 59.032 56.7296 58.804 56.0896 58.804C55.6816 58.804 55.3616 58.884 55.1296 59.044C54.9056 59.196 54.7936 59.412 54.7936 59.692C54.7936 59.924 54.8616 60.112 54.9976 60.256C55.1416 60.392 55.3696 60.496 55.6816 60.568L56.6776 60.808C57.2216 60.936 57.6256 61.132 57.8896 61.396C58.1536 61.652 58.2856 61.988 58.2856 62.404C58.2856 62.916 58.0776 63.324 57.6616 63.628C57.2536 63.932 56.6936 64.084 55.9816 64.084Z" />
<path fill-rule="evenodd" clip-rule="evenodd" d="M29.3337 14.6666C27.867 14.6666 26.6803 15.8666 26.6803 17.3333L26.667 41.3333L32.0003 36H50.667C52.1337 36 53.3337 34.8 53.3337 33.3333V17.3333C53.3337 15.8666 52.1337 14.6666 50.667 14.6666H29.3337ZM29.3337 17.3333H50.667V33.3333H30.8937L29.3337 34.8933V17.3333ZM42.667 28H32.0003V30.6666H42.667V28ZM32.0003 24H48.0003V26.6666H32.0003V24ZM48.0003 20H32.0003V22.6666H48.0003V20Z" />
</svg>
